<svg xmlns="http://www.w3.org/2000/svg" xmlns:xlink="http://www.w3.org/1999/xlink" width="1220" height="733.01"><rect width="1220" height="733.01" rx="5" ry="5" class="a"/><svg y="0%" x="0%"><circle cx="20" cy="20" r="6" fill="#ff5f58"/><circle cx="40" cy="20" r="6" fill="#ffbd2e"/><circle cx="60" cy="20" r="6" fill="#18c132"/></svg><svg height="673.01" viewBox="0 0 118 67.301" width="1180" x="15" xmlns="http://www.w3.org/2000/svg" xmlns:xlink="http://www.w3.org/1999/xlink" y="50"><style>@keyframes q{0%{transform:translateX(0)}2.02%{transform:translateX(-118px)}2.45%{transform:translateX(-236px)}7.09%{transform:translateX(-590px)}7.34%{transform:translateX(-1180px)}11.27%{transform:translateX(-1298px)}11.42%{transform:translateX(-1416px)}11.43%{transform:translateX(-1534px)}11.65%{transform:translateX(-1652px)}22.78%{transform:translateX(-1770px)}34.51%{transform:translateX(-2360px)}34.77%{transform:translateX(-2950px)}36.57%{transform:translateX(-3068px)}38.94%{transform:translateX(-3186px)}39.17%{transform:translateX(-3304px)}51.68%{transform:translateX(-3422px)}54.6%{transform:translateX(-3658px)}54.84%{transform:translateX(-3776px)}54.85%{transform:translateX(-3894px)}59.6%{transform:translateX(-4012px)}59.67%{transform:translateX(-4248px)}59.68%{transform:translateX(-4366px)}74.71%{transform:translateX(-4602px)}81.8%{transform:translateX(-4720px)}82.04%{transform:translateX(-4838px)}90.35%{transform:translateX(-4956px)}90.86%{transform:translateX(-5074px)}91.26%{transform:translateX(-5192px)}91.76%{transform:translateX(-5310px)}92.27%{transform:translateX(-5428px)}93.07%{transform:translateX(-5546px)}93.1%{transform:translateX(-5664px)}93.35%{transform:translateX(-5782px)}to{transform:translateX(-5900px)}}.a{fill:#282d35}.g{fill:#fff;font-weight:700}.k{fill:#b9c0cb}.l{fill:#e88388}.m{fill:#d290e4}.n{fill:#71bef2;font-weight:700}</style><g font-size="1.67" font-family="Monaco,Consolas,Menlo,'Bitstream Vera Sans Mono','Powerline Symbols',monospace"><defs><symbol id="1"><text y="1.67" fill="#d75f00" font-weight="700">nleiva</text><text x="7.014" y="1.67" class="g">in</text><text x="10.02" y="1.67" fill="#5f8700" font-weight="700">~/go/src/github.com/nleiva/xrgrpc/example/action</text><text x="59.118" y="1.67" class="g">on</text><text x="62.124" y="1.67" fill="#5f5faf" font-weight="700">master</text><text x="69.138" y="1.67" fill="#0087ff" font-weight="700">[?]</text></symbol><symbol id="2"><text y="1.67" class="g">$</text></symbol><symbol id="3"><text y="1.67" class="g">$</text><text x="2.004" y="1.67" class="k">#</text><text x="4.008" y="1.67" class="k">Check</text><text x="10.02" y="1.67" class="k">the</text><text x="14.028" y="1.67" class="k">input</text><text x="20.04" y="1.67" class="k">file</text></symbol><symbol id="4"><text y="1.67" class="g">$</text><text x="2.004" y="1.67" class="k">less</text><text x="7.014" y="1.67" class="k">../input/action/ping4.json</text></symbol><symbol id="5"><text y="1.67" class="l">{</text></symbol><symbol id="6"><text x="2.004" y="1.67" class="k">&quot;Cisco-IOS-XR-ping-act:ping&quot;:</text><text x="31.062" y="1.67" class="l">{</text></symbol><symbol id="7"><text x="4.008" y="1.67" class="k">&quot;destination&quot;:</text><text x="18.036" y="1.67" class="l">{</text></symbol><symbol id="8"><text x="6.012" y="1.67" class="k">&quot;destination&quot;:&quot;</text><text x="21.042" y="1.67" class="l">10.87.89.1</text><text x="31.062" y="1.67" class="k">&quot;</text><text x="32.064" y="1.67" class="l">,</text></symbol><symbol id="9"><text x="6.012" y="1.67" class="k">&quot;type-of-service&quot;:</text><text x="24.048" y="1.67" class="m">46</text><text x="26.052" y="1.67" class="l">,</text></symbol><symbol id="10"><text x="6.012" y="1.67" class="k">&quot;do-not-frag&quot;:</text><text x="21.042" y="1.67" class="n">true</text><text x="25.05" y="1.67" class="l">,</text></symbol><symbol id="11"><text x="6.012" y="1.67" class="k">&quot;source&quot;:</text><text x="16.032" y="1.67" class="k">&quot;</text><text x="17.034" y="1.67" class="l">10.87.89.181</text><text x="29.058" y="1.67" class="k">&quot;</text></symbol><symbol id="12"><text x="4.008" y="1.67" class="l">}</text></symbol><symbol id="13"><text x="2.004" y="1.67" class="l">}</text></symbol><symbol id="14"><text y="1.67" class="l">}</text></symbol><symbol id="15"><text y="1.67" class="g">$</text><text x="2.004" y="1.67" class="k">#</text><text x="4.008" y="1.67" class="k">Execute</text><text x="12.024" y="1.67" class="k">the</text><text x="16.032" y="1.67" class="k">action</text><text x="23.046" y="1.67" class="k">and</text><text x="27.054" y="1.67" class="k">sent</text><text x="32.064" y="1.67" class="k">the</text><text x="36.072" y="1.67" class="k">output</text><text x="43.086" y="1.67" class="k">to</text><text x="46.092" y="1.67" class="k">output.json</text></symbol><symbol id="16"><text y="1.67" class="g">$</text><text x="2.004" y="1.67" class="k">./action</text><text x="11.022" y="1.67" class="k">-act</text><text x="16.032" y="1.67" class="k">&quot;../input/action/ping4.json&quot;</text><text x="45.09" y="1.67" class="k">&gt;</text><text x="47.094" y="1.67" class="k">output.json</text></symbol><symbol id="17"><text y="1.67" class="k">2018/05/30</text><text x="11.022" y="1.67" class="k">14:54:02</text><text x="20.04" y="1.67" class="k">This</text><text x="25.05" y="1.67" class="k">process</text><text x="33.066" y="1.67" class="k">took</text><text x="38.076" y="1.67" class="k">719.955591ms</text></symbol><symbol id="18"><text y="1.67" class="g">$</text><text x="2.004" y="1.67" class="k">#</text><text x="4.008" y="1.67" class="k">See</text><text x="8.016" y="1.67" class="k">the</text><text x="12.024" y="1.67" class="k">output</text></symbol><symbol id="19"><text y="1.67" class="g">$</text><text x="2.004" y="1.67" class="k">less</text><text x="7.014" y="1.67" class="k">output.json</text></symbol><symbol id="20"><text y="1.67" class="k">output</text><text x="7.014" y="1.67" class="k">from</text><text x="12.024" y="1.67" class="l">[</text><text x="13.026" y="1.67" class="m">2001</text><text x="17.034" y="1.67" class="k">:</text><text x="18.036" y="1.67" class="m">420</text><text x="21.042" y="1.67" class="k">:2cff:</text><text x="27.054" y="1.67" class="m">1204</text><text x="31.062" y="1.67" class="k">::</text><text x="33.066" y="1.67" class="m">7816</text><text x="37.074" y="1.67" class="k">:</text><text x="38.076" y="1.67" class="m">1</text><text x="39.078" y="1.67" class="l">]</text><text x="40.08" y="1.67" class="k">:</text><text x="41.082" y="1.67" class="m">57344</text></symbol><symbol id="21"><text x="1.002" y="1.67" class="l">{</text></symbol><symbol id="22"><text x="1.002" y="1.67" class="k">&quot;Cisco-IOS-XR-ping-act:output&quot;:</text><text x="33.066" y="1.67" class="l">{</text></symbol><symbol id="23"><text x="2.004" y="1.67" class="k">&quot;ping-response&quot;:</text><text x="19.038" y="1.67" class="l">{</text></symbol><symbol id="24"><text x="3.006" y="1.67" class="k">&quot;ipv4&quot;:</text><text x="11.022" y="1.67" class="l">[</text></symbol><symbol id="25"><text x="4.008" y="1.67" class="l">{</text></symbol><symbol id="26"><text x="5.01" y="1.67" class="k">&quot;destination&quot;:</text><text x="20.04" y="1.67" class="k">&quot;</text><text x="21.042" y="1.67" class="l">10.87.89.1</text><text x="31.062" y="1.67" class="k">&quot;</text><text x="32.064" y="1.67" class="l">,</text></symbol><symbol id="27"><text x="5.01" y="1.67" class="k">&quot;repeat-count&quot;:</text><text x="21.042" y="1.67" class="k">&quot;</text><text x="22.044" y="1.67" class="l">5</text><text x="23.046" y="1.67" class="k">&quot;</text><text x="24.048" y="1.67" class="l">,</text></symbol><symbol id="28"><text x="5.01" y="1.67" class="k">&quot;data-size&quot;:</text><text x="18.036" y="1.67" class="k">&quot;</text><text x="19.038" y="1.67" class="l">100</text><text x="22.044" y="1.67" class="k">&quot;</text><text x="23.046" y="1.67" class="l">,</text></symbol><symbol id="29"><text x="5.01" y="1.67" class="k">&quot;timeout&quot;:</text><text x="16.032" y="1.67" class="k">&quot;</text><text x="17.034" y="1.67" class="l">2</text><text x="18.036" y="1.67" class="k">&quot;</text><text x="19.038" y="1.67" class="l">,</text></symbol><symbol id="30"><text x="5.01" y="1.67" class="k">&quot;pattern&quot;:</text><text x="16.032" y="1.67" class="k">&quot;</text><text x="17.034" y="1.67" class="l">abcd</text><text x="21.042" y="1.67" class="k">&quot;</text><text x="22.044" y="1.67" class="l">,</text></symbol><symbol id="31"><text x="5.01" y="1.67" class="k">&quot;rotate-pattern&quot;:</text><text x="23.046" y="1.67" class="n">false</text><text x="28.056" y="1.67" class="l">,</text></symbol><symbol id="32"><text x="5.01" y="1.67" class="k">&quot;replies&quot;:</text><text x="16.032" y="1.67" class="l">{</text></symbol><symbol id="33"><text x="6.012" y="1.67" class="k">&quot;reply&quot;:</text><text x="15.03" y="1.67" class="l">[</text></symbol><symbol id="34"><text x="7.014" y="1.67" class="l">{</text></symbol><symbol id="35"><text x="8.016" y="1.67" class="k">&quot;reply-index&quot;:</text><text x="23.046" y="1.67" class="k">&quot;</text><text x="24.048" y="1.67" class="l">1</text><text x="25.05" y="1.67" class="k">&quot;</text><text x="26.052" y="1.67" class="l">,</text></symbol><symbol id="36"><text x="8.016" y="1.67" class="k">&quot;result&quot;:</text><text x="18.036" y="1.67" class="k">&quot;</text><text x="19.038" y="1.67" class="l">!</text><text x="20.04" y="1.67" class="k">&quot;</text></symbol><symbol id="37"><text x="7.014" y="1.67" class="l">},</text></symbol><symbol id="38"><text x="8.016" y="1.67" class="k">&quot;reply-index&quot;:</text><text x="23.046" y="1.67" class="k">&quot;</text><text x="24.048" y="1.67" class="l">2</text><text x="25.05" y="1.67" class="k">&quot;</text><text x="26.052" y="1.67" class="l">,</text></symbol><symbol id="39"><text x="8.016" y="1.67" class="k">&quot;reply-index&quot;:</text><text x="23.046" y="1.67" class="k">&quot;</text><text x="24.048" y="1.67" class="l">3</text><text x="25.05" y="1.67" class="k">&quot;</text><text x="26.052" y="1.67" class="l">,</text></symbol><symbol id="40"><text x="8.016" y="1.67" class="k">&quot;reply-index&quot;:</text><text x="23.046" y="1.67" class="k">&quot;</text><text x="24.048" y="1.67" class="l">4</text><text x="25.05" y="1.67" class="k">&quot;</text><text x="26.052" y="1.67" class="l">,</text></symbol><symbol id="41"><text x="8.016" y="1.67" class="k">&quot;reply-index&quot;:</text><text x="23.046" y="1.67" class="k">&quot;</text><text x="24.048" y="1.67" class="l">5</text><text x="25.05" y="1.67" class="k">&quot;</text><text x="26.052" y="1.67" class="l">,</text></symbol><symbol id="42"><text x="7.014" y="1.67" class="l">}</text></symbol><symbol id="43"><text x="6.012" y="1.67" class="l">]</text></symbol><symbol id="44"><text x="5.01" y="1.67" class="l">},</text></symbol><symbol id="45"><text x="5.01" y="1.67" class="k">&quot;hits&quot;:</text><text x="13.026" y="1.67" class="k">&quot;</text><text x="14.028" y="1.67" class="l">5</text><text x="15.03" y="1.67" class="k">&quot;</text><text x="16.032" y="1.67" class="l">,</text></symbol><symbol id="46"><text x="5.01" y="1.67" class="k">&quot;total&quot;:</text><text x="14.028" y="1.67" class="k">&quot;</text><text x="15.03" y="1.67" class="l">5</text><text x="16.032" y="1.67" class="k">&quot;</text><text x="17.034" y="1.67" class="l">,</text></symbol><symbol id="47"><text x="5.01" y="1.67" class="k">&quot;success-rate&quot;:</text><text x="21.042" y="1.67" class="k">&quot;</text><text x="22.044" y="1.67" class="l">100</text><text x="25.05" y="1.67" class="k">&quot;</text><text x="26.052" y="1.67" class="l">,</text></symbol><symbol id="48"><text x="5.01" y="1.67" class="k">&quot;rtt-min&quot;:</text><text x="16.032" y="1.67" class="k">&quot;</text><text x="17.034" y="1.67" class="l">1</text><text x="18.036" y="1.67" class="k">&quot;</text><text x="19.038" y="1.67" class="l">,</text></symbol><symbol id="49"><text x="5.01" y="1.67" class="k">&quot;rtt-avg&quot;:</text><text x="16.032" y="1.67" class="k">&quot;</text><text x="17.034" y="1.67" class="l">3</text><text x="18.036" y="1.67" class="k">&quot;</text><text x="19.038" y="1.67" class="l">,</text></symbol><symbol id="50"><text x="5.01" y="1.67" class="k">&quot;rtt-max&quot;:</text><text x="16.032" y="1.67" class="k">&quot;</text><text x="17.034" y="1.67" class="l">8</text><text x="18.036" y="1.67" class="k">&quot;</text></symbol><symbol id="51"><text x="3.006" y="1.67" class="l">]</text></symbol><symbol id="52"><text x="1.002" y="1.67" class="l">}</text></symbol><symbol id="53"><text y="1.67" class="g">$</text><text x="2.004" y="1.67" class="k">clear</text></symbol><symbol id="a"><path fill="transparent" d="M0 0h118v31H0z"/></symbol><symbol id="b"><path fill="#6f7683" d="M0 0h1.102v2.171H0z"/></symbol></defs><path class="a" d="M0 0h118v67.301H0z"/><g style="animation-duration:32.409115s;animation-iteration-count:infinite;animation-name:q;animation-timing-function:steps(1,end)"><svg width="6018"><svg><use xlink:href="#a"/><use xlink:href="#b" x="-.004"/></svg><svg x="118"><use xlink:href="#a"/><use xlink:href="#b" x="-.004"/></svg><svg x="236"><use xlink:href="#a"/><use xlink:href="#b" x="1.996" y="4.317"/><use xlink:href="#1" y="2.171"/><use xlink:href="#2" y="4.342"/></svg><svg x="354"><use xlink:href="#a"/><use xlink:href="#b" x="7.996" y="4.317"/><use xlink:href="#1" y="2.171"/><text y="6.012" class="g">$</text><text x="2.004" y="6.012" class="k">#</text><text x="4.008" y="6.012" class="k">Chec</text></svg><svg x="472"><use xlink:href="#a"/><use xlink:href="#b" x="18.996" y="4.317"/><use xlink:href="#1" y="2.171"/><text y="6.012" class="g">$</text><text x="2.004" y="6.012" class="k">#</text><text x="4.008" y="6.012" class="k">Check</text><text x="10.02" y="6.012" class="k">the</text><text x="14.028" y="6.012" class="k">input</text></svg><svg x="590"><use xlink:href="#a"/><use xlink:href="#b" x="-.004" y="6.488"/><use xlink:href="#1" y="2.171"/><use xlink:href="#3" y="4.342"/></svg><svg x="708"><use xlink:href="#a"/><use xlink:href="#b" x="7.996" y="10.83"/><use xlink:href="#1" y="2.171"/><use xlink:href="#3" y="4.342"/><use xlink:href="#1" y="8.684"/><text y="12.525" class="g">$</text><text x="2.004" y="12.525" class="k">less</text><text x="7.014" y="12.525" class="k">.</text></svg><svg x="826"><use xlink:href="#a"/><use xlink:href="#b" x="18.996" y="10.83"/><use xlink:href="#1" y="2.171"/><use xlink:href="#3" y="4.342"/><use xlink:href="#1" y="8.684"/><text y="12.525" class="g">$</text><text x="2.004" y="12.525" class="k">less</text><text x="7.014" y="12.525" class="k">../input/act</text></svg><svg x="944"><use xlink:href="#a"/><use xlink:href="#b" x="21.996" y="10.83"/><use xlink:href="#1" y="2.171"/><use xlink:href="#3" y="4.342"/><use xlink:href="#1" y="8.684"/><text y="12.525" class="g">$</text><text x="2.004" y="12.525" class="k">less</text><text x="7.014" y="12.525" class="k">../input/action</text></svg><svg x="1062"><use xlink:href="#a"/><use xlink:href="#b" x="26.996" y="10.83"/><use xlink:href="#1" y="2.171"/><use xlink:href="#3" y="4.342"/><use xlink:href="#1" y="8.684"/><text y="12.525" class="g">$</text><text x="2.004" y="12.525" class="k">less</text><text x="7.014" y="12.525" class="k">../input/action/ping</text></svg><svg x="1180"><use xlink:href="#a"/><use xlink:href="#b" x="32.996" y="10.83"/><use xlink:href="#1" y="2.171"/><use xlink:href="#3" y="4.342"/><use xlink:href="#1" y="8.684"/><use xlink:href="#4" y="10.855"/></svg><svg x="1298"><use xlink:href="#a"/><use xlink:href="#b" x="-.004" y="13.001"/><use xlink:href="#1" y="2.171"/><use xlink:href="#3" y="4.342"/><use xlink:href="#1" y="8.684"/><use xlink:href="#4" y="10.855"/></svg><svg x="1416"><use xlink:href="#a"/><use xlink:href="#b" x="-.004" y="32.54"/><use xlink:href="#1" y="2.171"/><use xlink:href="#3" y="4.342"/><use xlink:href="#1" y="8.684"/><use xlink:href="#4" y="10.855"/><use xlink:href="#5" y="13.026"/><use xlink:href="#6" y="15.197"/><use xlink:href="#7" y="17.368"/><use xlink:href="#8" y="19.539"/><use xlink:href="#9" y="21.71"/><use xlink:href="#10" y="23.881"/><use xlink:href="#11" y="26.052"/><use xlink:href="#12" y="28.223"/><use xlink:href="#13" y="30.394"/></svg><svg x="1534"><use xlink:href="#a"/><use xlink:href="#b" x="-.004" y="34.711"/><use xlink:href="#1" y="2.171"/><use xlink:href="#3" y="4.342"/><use xlink:href="#1" y="8.684"/><use xlink:href="#4" y="10.855"/><use xlink:href="#5" y="13.026"/><use xlink:href="#6" y="15.197"/><use xlink:href="#7" y="17.368"/><use xlink:href="#8" y="19.539"/><use xlink:href="#9" y="21.71"/><use xlink:href="#10" y="23.881"/><use xlink:href="#11" y="26.052"/><use xlink:href="#12" y="28.223"/><use xlink:href="#13" y="30.394"/><use xlink:href="#14" y="32.565"/></svg><svg x="1652"><use xlink:href="#a"/><use xlink:href="#b" x="1.996" y="39.053"/><use xlink:href="#1" y="2.171"/><use xlink:href="#3" y="4.342"/><use xlink:href="#1" y="8.684"/><use xlink:href="#4" y="10.855"/><use xlink:href="#5" y="13.026"/><use xlink:href="#6" y="15.197"/><use xlink:href="#7" y="17.368"/><use xlink:href="#8" y="19.539"/><use xlink:href="#9" y="21.71"/><use xlink:href="#10" y="23.881"/><use xlink:href="#11" y="26.052"/><use xlink:href="#12" y="28.223"/><use xlink:href="#13" y="30.394"/><use xlink:href="#14" y="32.565"/><use xlink:href="#1" y="36.907"/><use xlink:href="#2" y="39.078"/></svg><svg x="1770"><use xlink:href="#a"/><use xlink:href="#b" x="1.996" y="4.317"/><use xlink:href="#1" y="2.171"/><use xlink:href="#2" y="4.342"/></svg><svg x="1888"><use xlink:href="#a"/><use xlink:href="#b" x="4.996" y="4.317"/><use xlink:href="#1" y="2.171"/><text y="6.012" class="g">$</text><text x="2.004" y="6.012" class="k">#</text><text x="4.008" y="6.012" class="k">E</text></svg><svg x="2006"><use xlink:href="#a"/><use xlink:href="#b" x="31.996" y="4.317"/><use xlink:href="#1" y="2.171"/><text y="6.012" class="g">$</text><text x="2.004" y="6.012" class="k">#</text><text x="4.008" y="6.012" class="k">Execute</text><text x="12.024" y="6.012" class="k">the</text><text x="16.032" y="6.012" class="k">action</text><text x="23.046" y="6.012" class="k">and</text><text x="27.054" y="6.012" class="k">sent</text></svg><svg x="2124"><use xlink:href="#a"/><use xlink:href="#b" x="44.996" y="4.317"/><use xlink:href="#1" y="2.171"/><text y="6.012" class="g">$</text><text x="2.004" y="6.012" class="k">#</text><text x="4.008" y="6.012" class="k">Execute</text><text x="12.024" y="6.012" class="k">the</text><text x="16.032" y="6.012" class="k">action</text><text x="23.046" y="6.012" class="k">and</text><text x="27.054" y="6.012" class="k">sent</text><text x="32.064" y="6.012" class="k">the</text><text x="36.072" y="6.012" class="k">output</text><text x="43.086" y="6.012" class="k">to</text></svg><svg x="2242"><use xlink:href="#a"/><use xlink:href="#b" x="51.996" y="4.317"/><use xlink:href="#1" y="2.171"/><text y="6.012" class="g">$</text><text x="2.004" y="6.012" class="k">#</text><text x="4.008" y="6.012" class="k">Execute</text><text x="12.024" y="6.012" class="k">the</text><text x="16.032" y="6.012" class="k">action</text><text x="23.046" y="6.012" class="k">and</text><text x="27.054" y="6.012" class="k">sent</text><text x="32.064" y="6.012" class="k">the</text><text x="36.072" y="6.012" class="k">output</text><text x="43.086" y="6.012" class="k">to</text><text x="46.092" y="6.012" class="k">output</text></svg><svg x="2360"><use xlink:href="#a"/><use xlink:href="#b" x="-.004" y="6.488"/><use xlink:href="#1" y="2.171"/><use xlink:href="#15" y="4.342"/></svg><svg x="2478"><use xlink:href="#a"/><use xlink:href="#b" x="2.996" y="10.83"/><use xlink:href="#1" y="2.171"/><use xlink:href="#15" y="4.342"/><use xlink:href="#1" y="8.684"/><text y="12.525" class="g">$</text><text x="2.004" y="12.525" class="k">.</text></svg><svg x="2596"><use xlink:href="#a"/><use xlink:href="#b" x="26.996" y="10.83"/><use xlink:href="#1" y="2.171"/><use xlink:href="#15" y="4.342"/><use xlink:href="#1" y="8.684"/><text y="12.525" class="g">$</text><text x="2.004" y="12.525" class="k">./action</text><text x="11.022" y="12.525" class="k">-act</text><text x="16.032" y="12.525" class="k">&quot;../input/a</text></svg><svg x="2714"><use xlink:href="#a"/><use xlink:href="#b" x="42.996" y="10.83"/><use xlink:href="#1" y="2.171"/><use xlink:href="#15" y="4.342"/><use xlink:href="#1" y="8.684"/><text y="12.525" class="g">$</text><text x="2.004" y="12.525" class="k">./action</text><text x="11.022" y="12.525" class="k">-act</text><text x="16.032" y="12.525" class="k">&quot;../input/action/ping4.json</text></svg><svg x="2832"><use xlink:href="#a"/><use xlink:href="#b" x="53.996" y="10.83"/><use xlink:href="#1" y="2.171"/><use xlink:href="#15" y="4.342"/><use xlink:href="#1" y="8.684"/><text y="12.525" class="g">$</text><text x="2.004" y="12.525" class="k">./action</text><text x="11.022" y="12.525" class="k">-act</text><text x="16.032" y="12.525" class="k">&quot;../input/action/ping4.json&quot;</text><text x="45.09" y="12.525" class="k">&gt;</text><text x="47.094" y="12.525" class="k">output.</text></svg><svg x="2950"><use xlink:href="#a"/><use xlink:href="#b" x="57.996" y="10.83"/><use xlink:href="#1" y="2.171"/><use xlink:href="#15" y="4.342"/><use xlink:href="#1" y="8.684"/><use xlink:href="#16" y="10.855"/></svg><svg x="3068"><use xlink:href="#a"/><use xlink:href="#b" x="-.004" y="13.001"/><use xlink:href="#1" y="2.171"/><use xlink:href="#15" y="4.342"/><use xlink:href="#1" y="8.684"/><use xlink:href="#16" y="10.855"/></svg><svg x="3186"><use xlink:href="#a"/><use xlink:href="#b" x="-.004" y="15.172"/><use xlink:href="#1" y="2.171"/><use xlink:href="#15" y="4.342"/><use xlink:href="#1" y="8.684"/><use xlink:href="#16" y="10.855"/><use xlink:href="#17" y="13.026"/></svg><svg x="3304"><use xlink:href="#a"/><use xlink:href="#b" x="1.996" y="19.514"/><use xlink:href="#1" y="2.171"/><use xlink:href="#15" y="4.342"/><use xlink:href="#1" y="8.684"/><use xlink:href="#16" y="10.855"/><use xlink:href="#17" y="13.026"/><use xlink:href="#1" y="17.368"/><use xlink:href="#2" y="19.539"/></svg><svg x="3422"><use xlink:href="#a"/><use xlink:href="#b" x="1.996" y="4.317"/><use xlink:href="#1" y="2.171"/><use xlink:href="#2" y="4.342"/></svg><svg x="3540"><use xlink:href="#a"/><use xlink:href="#b" x="9.996" y="4.317"/><use xlink:href="#1" y="2.171"/><text y="6.012" class="g">$</text><text x="2.004" y="6.012" class="k">#</text><text x="4.008" y="6.012" class="k">See</text><text x="8.016" y="6.012" class="k">th</text></svg><svg x="3658"><use xlink:href="#a"/><use xlink:href="#b" x="-.004" y="6.488"/><use xlink:href="#1" y="2.171"/><use xlink:href="#18" y="4.342"/></svg><svg x="3776"><use xlink:href="#a"/><use xlink:href="#b" x="7.996" y="10.83"/><use xlink:href="#1" y="2.171"/><use xlink:href="#18" y="4.342"/><use xlink:href="#1" y="8.684"/><text y="12.525" class="g">$</text><text x="2.004" y="12.525" class="k">less</text><text x="7.014" y="12.525" class="k">o</text></svg><svg x="3894"><use xlink:href="#a"/><use xlink:href="#b" x="17.996" y="10.83"/><use xlink:href="#1" y="2.171"/><use xlink:href="#18" y="4.342"/><use xlink:href="#1" y="8.684"/><use xlink:href="#19" y="10.855"/></svg><svg x="4012"><use xlink:href="#a"/><use xlink:href="#b" x="-.004" y="13.001"/><use xlink:href="#1" y="2.171"/><use xlink:href="#18" y="4.342"/><use xlink:href="#1" y="8.684"/><use xlink:href="#19" y="10.855"/></svg><svg x="4130"><use xlink:href="#a"/><use xlink:href="#b" x="-.004" y="15.172"/><use xlink:href="#1" y="2.171"/><use xlink:href="#18" y="4.342"/><use xlink:href="#1" y="8.684"/><use xlink:href="#19" y="10.855"/></svg><svg x="4248"><use xlink:href="#a"/><use xlink:href="#b" x="24.996" y="65.105"/><use xlink:href="#1"/><use xlink:href="#19" y="2.171"/><use xlink:href="#20" y="6.513"/><use xlink:href="#21" y="8.684"/><use xlink:href="#22" y="10.855"/><use xlink:href="#23" y="13.026"/><use xlink:href="#24" y="15.197"/><use xlink:href="#25" y="17.368"/><use xlink:href="#26" y="19.539"/><use xlink:href="#27" y="21.71"/><use xlink:href="#28" y="23.881"/><use xlink:href="#29" y="26.052"/><use xlink:href="#30" y="28.223"/><use xlink:href="#31" y="30.394"/><use xlink:href="#32" y="32.565"/><use xlink:href="#33" y="34.736"/><use xlink:href="#34" y="36.907"/><use xlink:href="#35" y="39.078"/><use xlink:href="#36" y="41.249"/><use xlink:href="#37" y="43.42"/><use xlink:href="#34" y="45.591"/><use xlink:href="#38" y="47.762"/><use xlink:href="#36" y="49.933"/><use xlink:href="#37" y="52.104"/><use xlink:href="#34" y="54.275"/><use xlink:href="#39" y="56.446"/><use xlink:href="#36" y="58.617"/><use xlink:href="#37" y="60.788"/><use xlink:href="#34" y="62.959"/><text x="8.016" y="66.8" class="k">&quot;reply-index&quot;:</text><text x="23.046" y="66.8" class="k">&quot;</text><text x="24.048" y="66.8" class="l">4</text></svg><svg x="4366"><use xlink:href="#a"/><use xlink:href="#b" x="10.996" y="65.105"/><use xlink:href="#20" y="2.171"/><use xlink:href="#21" y="4.342"/><use xlink:href="#22" y="6.513"/><use xlink:href="#23" y="8.684"/><use xlink:href="#24" y="10.855"/><use xlink:href="#25" y="13.026"/><use xlink:href="#26" y="15.197"/><use xlink:href="#27" y="17.368"/><use xlink:href="#28" y="19.539"/><use xlink:href="#29" y="21.71"/><use xlink:href="#30" y="23.881"/><use xlink:href="#31" y="26.052"/><use xlink:href="#32" y="28.223"/><use xlink:href="#33" y="30.394"/><use xlink:href="#34" y="32.565"/><use xlink:href="#35" y="34.736"/><use xlink:href="#36" y="36.907"/><use xlink:href="#37" y="39.078"/><use xlink:href="#34" y="41.249"/><use xlink:href="#38" y="43.42"/><use xlink:href="#36" y="45.591"/><use xlink:href="#37" y="47.762"/><use xlink:href="#34" y="49.933"/><use xlink:href="#39" y="52.104"/><use xlink:href="#36" y="54.275"/><use xlink:href="#37" y="56.446"/><use xlink:href="#34" y="58.617"/><use xlink:href="#40" y="60.788"/><use xlink:href="#36" y="62.959"/><path class="k" d="M0 65.13h11v2.171H0z"/><text y="66.8" class="a">output.json</text></svg><svg x="4484"><use xlink:href="#a"/><use xlink:href="#b" x="-.004" y="65.105"/><use xlink:href="#20" y="2.171"/><use xlink:href="#21" y="4.342"/><use xlink:href="#22" y="6.513"/><use xlink:href="#23" y="8.684"/><use xlink:href="#24" y="10.855"/><use xlink:href="#25" y="13.026"/><use xlink:href="#26" y="15.197"/><use xlink:href="#27" y="17.368"/><use xlink:href="#28" y="19.539"/><use xlink:href="#29" y="21.71"/><use xlink:href="#30" y="23.881"/><use xlink:href="#31" y="26.052"/><use xlink:href="#32" y="28.223"/><use xlink:href="#33" y="30.394"/><use xlink:href="#34" y="32.565"/><use xlink:href="#35" y="34.736"/><use xlink:href="#36" y="36.907"/><use xlink:href="#37" y="39.078"/><use xlink:href="#34" y="41.249"/><use xlink:href="#38" y="43.42"/><use xlink:href="#36" y="45.591"/><use xlink:href="#37" y="47.762"/><use xlink:href="#34" y="49.933"/><use xlink:href="#39" y="52.104"/><use xlink:href="#36" y="54.275"/><use xlink:href="#37" y="56.446"/><use xlink:href="#34" y="58.617"/><use xlink:href="#40" y="60.788"/><use xlink:href="#36" y="62.959"/></svg><svg x="4602"><use xlink:href="#a"/><use xlink:href="#b" x="4.996" y="65.105"/><use xlink:href="#34"/><use xlink:href="#38" y="2.171"/><use xlink:href="#36" y="4.342"/><use xlink:href="#37" y="6.513"/><use xlink:href="#34" y="8.684"/><use xlink:href="#39" y="10.855"/><use xlink:href="#36" y="13.026"/><use xlink:href="#37" y="15.197"/><use xlink:href="#34" y="17.368"/><use xlink:href="#40" y="19.539"/><use xlink:href="#36" y="21.71"/><use xlink:href="#37" y="23.881"/><use xlink:href="#34" y="26.052"/><use xlink:href="#41" y="28.223"/><use xlink:href="#36" y="30.394"/><use xlink:href="#42" y="32.565"/><use xlink:href="#43" y="34.736"/><use xlink:href="#44" y="36.907"/><use xlink:href="#45" y="39.078"/><use xlink:href="#46" y="41.249"/><use xlink:href="#47" y="43.42"/><use xlink:href="#48" y="45.591"/><use xlink:href="#49" y="47.762"/><use xlink:href="#50" y="49.933"/><use xlink:href="#12" y="52.104"/><use xlink:href="#51" y="54.275"/><use xlink:href="#13" y="56.446"/><use xlink:href="#52" y="58.617"/><use xlink:href="#14" y="60.788"/><path class="k" d="M0 65.13h5v2.171H0z"/><text y="66.8" class="a">(END)</text></svg><svg x="4720"><use xlink:href="#a"/><use xlink:href="#b" x="-.004" y="65.105"/><use xlink:href="#34"/><use xlink:href="#38" y="2.171"/><use xlink:href="#36" y="4.342"/><use xlink:href="#37" y="6.513"/><use xlink:href="#34" y="8.684"/><use xlink:href="#39" y="10.855"/><use xlink:href="#36" y="13.026"/><use xlink:href="#37" y="15.197"/><use xlink:href="#34" y="17.368"/><use xlink:href="#40" y="19.539"/><use xlink:href="#36" y="21.71"/><use xlink:href="#37" y="23.881"/><use xlink:href="#34" y="26.052"/><use xlink:href="#41" y="28.223"/><use xlink:href="#36" y="30.394"/><use xlink:href="#42" y="32.565"/><use xlink:href="#43" y="34.736"/><use xlink:href="#44" y="36.907"/><use xlink:href="#45" y="39.078"/><use xlink:href="#46" y="41.249"/><use xlink:href="#47" y="43.42"/><use xlink:href="#48" y="45.591"/><use xlink:href="#49" y="47.762"/><use xlink:href="#50" y="49.933"/><use xlink:href="#12" y="52.104"/><use xlink:href="#51" y="54.275"/><use xlink:href="#13" y="56.446"/><use xlink:href="#52" y="58.617"/><use xlink:href="#14" y="60.788"/></svg><svg x="4838"><use xlink:href="#a"/><use xlink:href="#b" x="1.996" y="65.105"/><use xlink:href="#36"/><use xlink:href="#37" y="2.171"/><use xlink:href="#34" y="4.342"/><use xlink:href="#39" y="6.513"/><use xlink:href="#36" y="8.684"/><use xlink:href="#37" y="10.855"/><use xlink:href="#34" y="13.026"/><use xlink:href="#40" y="15.197"/><use xlink:href="#36" y="17.368"/><use xlink:href="#37" y="19.539"/><use xlink:href="#34" y="21.71"/><use xlink:href="#41" y="23.881"/><use xlink:href="#36" y="26.052"/><use xlink:href="#42" y="28.223"/><use xlink:href="#43" y="30.394"/><use xlink:href="#44" y="32.565"/><use xlink:href="#45" y="34.736"/><use xlink:href="#46" y="36.907"/><use xlink:href="#47" y="39.078"/><use xlink:href="#48" y="41.249"/><use xlink:href="#49" y="43.42"/><use xlink:href="#50" y="45.591"/><use xlink:href="#12" y="47.762"/><use xlink:href="#51" y="49.933"/><use xlink:href="#13" y="52.104"/><use xlink:href="#52" y="54.275"/><use xlink:href="#14" y="56.446"/><use xlink:href="#1" y="62.959"/><use xlink:href="#2" y="65.13"/></svg><svg x="4956"><use xlink:href="#a"/><use xlink:href="#b" x="2.996" y="65.105"/><use xlink:href="#36"/><use xlink:href="#37" y="2.171"/><use xlink:href="#34" y="4.342"/><use xlink:href="#39" y="6.513"/><use xlink:href="#36" y="8.684"/><use xlink:href="#37" y="10.855"/><use xlink:href="#34" y="13.026"/><use xlink:href="#40" y="15.197"/><use xlink:href="#36" y="17.368"/><use xlink:href="#37" y="19.539"/><use xlink:href="#34" y="21.71"/><use xlink:href="#41" y="23.881"/><use xlink:href="#36" y="26.052"/><use xlink:href="#42" y="28.223"/><use xlink:href="#43" y="30.394"/><use xlink:href="#44" y="32.565"/><use xlink:href="#45" y="34.736"/><use xlink:href="#46" y="36.907"/><use xlink:href="#47" y="39.078"/><use xlink:href="#48" y="41.249"/><use xlink:href="#49" y="43.42"/><use xlink:href="#50" y="45.591"/><use xlink:href="#12" y="47.762"/><use xlink:href="#51" y="49.933"/><use xlink:href="#13" y="52.104"/><use xlink:href="#52" y="54.275"/><use xlink:href="#14" y="56.446"/><use xlink:href="#1" y="62.959"/><text y="66.8" class="g">$</text><text x="2.004" y="66.8" class="k">c</text></svg><svg x="5074"><use xlink:href="#a"/><use xlink:href="#b" x="3.996" y="65.105"/><use xlink:href="#36"/><use xlink:href="#37" y="2.171"/><use xlink:href="#34" y="4.342"/><use xlink:href="#39" y="6.513"/><use xlink:href="#36" y="8.684"/><use xlink:href="#37" y="10.855"/><use xlink:href="#34" y="13.026"/><use xlink:href="#40" y="15.197"/><use xlink:href="#36" y="17.368"/><use xlink:href="#37" y="19.539"/><use xlink:href="#34" y="21.71"/><use xlink:href="#41" y="23.881"/><use xlink:href="#36" y="26.052"/><use xlink:href="#42" y="28.223"/><use xlink:href="#43" y="30.394"/><use xlink:href="#44" y="32.565"/><use xlink:href="#45" y="34.736"/><use xlink:href="#46" y="36.907"/><use xlink:href="#47" y="39.078"/><use xlink:href="#48" y="41.249"/><use xlink:href="#49" y="43.42"/><use xlink:href="#50" y="45.591"/><use xlink:href="#12" y="47.762"/><use xlink:href="#51" y="49.933"/><use xlink:href="#13" y="52.104"/><use xlink:href="#52" y="54.275"/><use xlink:href="#14" y="56.446"/><use xlink:href="#1" y="62.959"/><text y="66.8" class="g">$</text><text x="2.004" y="66.8" class="k">cl</text></svg><svg x="5192"><use xlink:href="#a"/><use xlink:href="#b" x="4.996" y="65.105"/><use xlink:href="#36"/><use xlink:href="#37" y="2.171"/><use xlink:href="#34" y="4.342"/><use xlink:href="#39" y="6.513"/><use xlink:href="#36" y="8.684"/><use xlink:href="#37" y="10.855"/><use xlink:href="#34" y="13.026"/><use xlink:href="#40" y="15.197"/><use xlink:href="#36" y="17.368"/><use xlink:href="#37" y="19.539"/><use xlink:href="#34" y="21.71"/><use xlink:href="#41" y="23.881"/><use xlink:href="#36" y="26.052"/><use xlink:href="#42" y="28.223"/><use xlink:href="#43" y="30.394"/><use xlink:href="#44" y="32.565"/><use xlink:href="#45" y="34.736"/><use xlink:href="#46" y="36.907"/><use xlink:href="#47" y="39.078"/><use xlink:href="#48" y="41.249"/><use xlink:href="#49" y="43.42"/><use xlink:href="#50" y="45.591"/><use xlink:href="#12" y="47.762"/><use xlink:href="#51" y="49.933"/><use xlink:href="#13" y="52.104"/><use xlink:href="#52" y="54.275"/><use xlink:href="#14" y="56.446"/><use xlink:href="#1" y="62.959"/><text y="66.8" class="g">$</text><text x="2.004" y="66.8" class="k">cle</text></svg><svg x="5310"><use xlink:href="#a"/><use xlink:href="#b" x="5.996" y="65.105"/><use xlink:href="#36"/><use xlink:href="#37" y="2.171"/><use xlink:href="#34" y="4.342"/><use xlink:href="#39" y="6.513"/><use xlink:href="#36" y="8.684"/><use xlink:href="#37" y="10.855"/><use xlink:href="#34" y="13.026"/><use xlink:href="#40" y="15.197"/><use xlink:href="#36" y="17.368"/><use xlink:href="#37" y="19.539"/><use xlink:href="#34" y="21.71"/><use xlink:href="#41" y="23.881"/><use xlink:href="#36" y="26.052"/><use xlink:href="#42" y="28.223"/><use xlink:href="#43" y="30.394"/><use xlink:href="#44" y="32.565"/><use xlink:href="#45" y="34.736"/><use xlink:href="#46" y="36.907"/><use xlink:href="#47" y="39.078"/><use xlink:href="#48" y="41.249"/><use xlink:href="#49" y="43.42"/><use xlink:href="#50" y="45.591"/><use xlink:href="#12" y="47.762"/><use xlink:href="#51" y="49.933"/><use xlink:href="#13" y="52.104"/><use xlink:href="#52" y="54.275"/><use xlink:href="#14" y="56.446"/><use xlink:href="#1" y="62.959"/><text y="66.8" class="g">$</text><text x="2.004" y="66.8" class="k">clea</text></svg><svg x="5428"><use xlink:href="#a"/><use xlink:href="#b" x="6.996" y="65.105"/><use xlink:href="#36"/><use xlink:href="#37" y="2.171"/><use xlink:href="#34" y="4.342"/><use xlink:href="#39" y="6.513"/><use xlink:href="#36" y="8.684"/><use xlink:href="#37" y="10.855"/><use xlink:href="#34" y="13.026"/><use xlink:href="#40" y="15.197"/><use xlink:href="#36" y="17.368"/><use xlink:href="#37" y="19.539"/><use xlink:href="#34" y="21.71"/><use xlink:href="#41" y="23.881"/><use xlink:href="#36" y="26.052"/><use xlink:href="#42" y="28.223"/><use xlink:href="#43" y="30.394"/><use xlink:href="#44" y="32.565"/><use xlink:href="#45" y="34.736"/><use xlink:href="#46" y="36.907"/><use xlink:href="#47" y="39.078"/><use xlink:href="#48" y="41.249"/><use xlink:href="#49" y="43.42"/><use xlink:href="#50" y="45.591"/><use xlink:href="#12" y="47.762"/><use xlink:href="#51" y="49.933"/><use xlink:href="#13" y="52.104"/><use xlink:href="#52" y="54.275"/><use xlink:href="#14" y="56.446"/><use xlink:href="#1" y="62.959"/><use xlink:href="#53" y="65.13"/></svg><svg x="5546"><use xlink:href="#a"/><use xlink:href="#b" x="-.004" y="65.105"/><use xlink:href="#37"/><use xlink:href="#34" y="2.171"/><use xlink:href="#39" y="4.342"/><use xlink:href="#36" y="6.513"/><use xlink:href="#37" y="8.684"/><use xlink:href="#34" y="10.855"/><use xlink:href="#40" y="13.026"/><use xlink:href="#36" y="15.197"/><use xlink:href="#37" y="17.368"/><use xlink:href="#34" y="19.539"/><use xlink:href="#41" y="21.71"/><use xlink:href="#36" y="23.881"/><use xlink:href="#42" y="26.052"/><use xlink:href="#43" y="28.223"/><use xlink:href="#44" y="30.394"/><use xlink:href="#45" y="32.565"/><use xlink:href="#46" y="34.736"/><use xlink:href="#47" y="36.907"/><use xlink:href="#48" y="39.078"/><use xlink:href="#49" y="41.249"/><use xlink:href="#50" y="43.42"/><use xlink:href="#12" y="45.591"/><use xlink:href="#51" y="47.762"/><use xlink:href="#13" y="49.933"/><use xlink:href="#52" y="52.104"/><use xlink:href="#14" y="54.275"/><use xlink:href="#1" y="60.788"/><use xlink:href="#53" y="62.959"/></svg><svg x="5664"><use xlink:href="#a"/><use xlink:href="#b" x="-.004"/></svg><svg x="5782"><use xlink:href="#a"/><use xlink:href="#b" x="1.996" y="4.317"/><use xlink:href="#1" y="2.171"/><use xlink:href="#2" y="4.342"/></svg><svg x="5900"><use xlink:href="#a"/><use xlink:href="#b" x="-.004" y="6.488"/><use xlink:href="#1" y="2.171"/><text y="6.012" class="g">$</text><text x="2.004" y="6.012" class="k">logout</text></svg></svg></g></g></svg></svg>