<svg xmlns="http://www.w3.org/2000/svg" xmlns:xlink="http://www.w3.org/1999/xlink" width="1210" height="754.72"><rect width="1210" height="754.72" rx="5" ry="5" class="a"/><svg y="0%" x="0%"><circle cx="20" cy="20" r="6" fill="#ff5f58"/><circle cx="40" cy="20" r="6" fill="#ffbd2e"/><circle cx="60" cy="20" r="6" fill="#18c132"/></svg><svg height="694.72" viewBox="0 0 117 69.472" width="1170" x="15" xmlns="http://www.w3.org/2000/svg" xmlns:xlink="http://www.w3.org/1999/xlink" y="50"><style>@keyframes p{0%{transform:translateX(0)}1.54%{transform:translateX(-117px)}1.86%{transform:translateX(-234px)}3.76%{transform:translateX(-351px)}5.38%{transform:translateX(-819px)}9.61%{transform:translateX(-936px)}12.08%{transform:translateX(-1287px)}12.09%{transform:translateX(-1404px)}14.04%{transform:translateX(-1521px)}14.1%{transform:translateX(-1755px)}14.27%{transform:translateX(-1872px)}23.23%{transform:translateX(-1989px)}24.35%{transform:translateX(-2340px)}30.05%{transform:translateX(-2457px)}31.95%{transform:translateX(-2808px)}31.96%{transform:translateX(-2925px)}34.15%{transform:translateX(-3042px)}40.05%{transform:translateX(-3276px)}40.23%{transform:translateX(-3393px)}51.14%{transform:translateX(-3510px)}52.24%{transform:translateX(-4212px)}62.45%{transform:translateX(-4329px)}63.9%{transform:translateX(-4446px)}66.29%{transform:translateX(-4563px)}69.08%{transform:translateX(-4680px)}73.2%{transform:translateX(-4797px)}75.23%{transform:translateX(-4914px)}75.42%{transform:translateX(-5031px)}77.95%{transform:translateX(-5148px)}82.36%{transform:translateX(-5265px)}82.53%{transform:translateX(-5382px)}84.51%{transform:translateX(-5616px)}90.1%{transform:translateX(-5733px)}90.82%{transform:translateX(-5850px)}91.29%{transform:translateX(-5967px)}92.15%{transform:translateX(-6084px)}96.41%{transform:translateX(-6201px)}96.57%{transform:translateX(-6318px)}96.77%{transform:translateX(-6435px)}to{transform:translateX(-6552px)}}.a{fill:#282d35}.g{fill:#fff;font-weight:700}.k{fill:#b9c0cb}.l{fill:#e88388}</style><g font-size="1.67" font-family="Monaco,Consolas,Menlo,'Bitstream Vera Sans Mono','Powerline Symbols',monospace"><defs><symbol id="1"><text y="1.67" fill="#d75f00" font-weight="700">nleiva</text><text x="7.014" y="1.67" class="g">in</text><text x="10.02" y="1.67" fill="#5f8700" font-weight="700">~/go/src/github.com/nleiva/xrgrpc/example/action</text><text x="59.118" y="1.67" class="g">on</text><text x="62.124" y="1.67" fill="#5f5faf" font-weight="700">master</text><text x="69.138" y="1.67" fill="#0087ff" font-weight="700">[?]</text></symbol><symbol id="2"><text y="1.67" class="g">$</text></symbol><symbol id="3"><text y="1.67" class="g">$</text><text x="2.004" y="1.67" class="k">#</text></symbol><symbol id="4"><text y="1.67" class="g">$</text><text x="2.004" y="1.67" class="k">less</text><text x="7.014" y="1.67" class="k">../input/action/crypto.json</text></symbol><symbol id="5"><text y="1.67" class="l">{</text></symbol><symbol id="6"><text x="2.004" y="1.67" class="k">&quot;Cisco-IOS-XR-crypto-act:key-generate-rsa-general-keys&quot;:</text><text x="58.116" y="1.67" class="l">{</text></symbol><symbol id="7"><text x="4.008" y="1.67" class="k">&quot;key-label&quot;:</text><text x="17.034" y="1.67" class="k">&quot;</text><text x="18.036" y="1.67" class="l">test</text><text x="22.044" y="1.67" class="k">&quot;</text><text x="23.046" y="1.67" class="l">,</text></symbol><symbol id="8"><text x="4.008" y="1.67" class="k">&quot;key-modulus&quot;:</text><text x="19.038" y="1.67" fill="#d290e4">2048</text></symbol><symbol id="9"><text x="2.004" y="1.67" class="l">}</text></symbol><symbol id="10"><text y="1.67" class="l">}</text></symbol><symbol id="11"><text y="1.67" class="g">$</text><text x="2.004" y="1.67" class="k">./action</text><text x="11.022" y="1.67" class="k">-act</text><text x="16.032" y="1.67" class="k">&quot;../input/action/crypto.json&quot;</text></symbol><symbol id="12"><text y="1.67" class="k">output</text><text x="7.014" y="1.67" class="k">from</text><text x="12.024" y="1.67" class="k">[2001:420:2cff:1204::7816:1]:57344</text></symbol><symbol id="13"><text y="1.67" class="k">2018/05/31</text><text x="11.022" y="1.67" class="k">14:40:32</text><text x="20.04" y="1.67" class="k">This</text><text x="25.05" y="1.67" class="k">process</text><text x="33.066" y="1.67" class="k">took</text><text x="38.076" y="1.67" class="k">2.502697227s</text></symbol><symbol id="14"><text y="1.67" class="g">$</text><text x="2.004" y="1.67" class="k">wb01</text></symbol><symbol id="15"><text y="1.67" class="k">Password:</text></symbol><symbol id="16"><text y="1.67" class="k">RP/0/RP0/CPU0:mrstn-7816-1.cisco.com#</text></symbol><symbol id="17"><text y="1.67" class="k">RP/0/RP0/CPU0:mrstn-7816-1.cisco.com#show</text><text x="42.084" y="1.67" class="k">crypto</text><text x="49.098" y="1.67" class="k">key</text><text x="53.106" y="1.67" class="k">mypubkey</text><text x="62.124" y="1.67" class="k">rsa</text><text x="66.132" y="1.67" class="k">|</text><text x="68.136" y="1.67" class="k">utility</text><text x="76.152" y="1.67" class="k">head</text><text x="81.162" y="1.67" class="k">-16</text></symbol><symbol id="18"><text y="1.67" class="k">Thu</text><text x="4.008" y="1.67" class="k">May</text><text x="8.016" y="1.67" class="k">31</text><text x="11.022" y="1.67" class="k">18:40:50.461</text><text x="24.048" y="1.67" class="k">UTC</text></symbol><symbol id="19"><text y="1.67" class="k">Key</text><text x="4.008" y="1.67" class="k">label:</text><text x="11.022" y="1.67" class="k">test</text></symbol><symbol id="20"><text y="1.67" class="k">Type</text><text x="9.018" y="1.67" class="k">:</text><text x="11.022" y="1.67" class="k">RSA</text><text x="15.03" y="1.67" class="k">General</text><text x="23.046" y="1.67" class="k">purpose</text></symbol><symbol id="21"><text y="1.67" class="k">Size</text><text x="9.018" y="1.67" class="k">:</text><text x="11.022" y="1.67" class="k">2048</text></symbol><symbol id="22"><text y="1.67" class="k">Created</text><text x="9.018" y="1.67" class="k">:</text><text x="11.022" y="1.67" class="k">18:40:30</text><text x="20.04" y="1.67" class="k">UTC</text><text x="24.048" y="1.67" class="k">Thu</text><text x="28.056" y="1.67" class="k">May</text><text x="32.064" y="1.67" class="k">31</text><text x="35.07" y="1.67" class="k">2018</text></symbol><symbol id="23"><text y="1.67" class="k">Data</text><text x="9.018" y="1.67" class="k">:</text></symbol><symbol id="24"><text x="1.002" y="1.67" class="k">30820122</text><text x="10.02" y="1.67" class="k">300D0609</text><text x="19.038" y="1.67" class="k">2A864886</text><text x="28.056" y="1.67" class="k">F70D0101</text><text x="37.074" y="1.67" class="k">01050003</text><text x="46.092" y="1.67" class="k">82010F00</text><text x="55.11" y="1.67" class="k">3082010A</text><text x="64.128" y="1.67" class="k">02820101</text></symbol><symbol id="25"><text x="1.002" y="1.67" class="k">00D739F9</text><text x="10.02" y="1.67" class="k">B01B2C8A</text><text x="19.038" y="1.67" class="k">5773A831</text><text x="28.056" y="1.67" class="k">F4EC3052</text><text x="37.074" y="1.67" class="k">5815D134</text><text x="46.092" y="1.67" class="k">9412B6B7</text><text x="55.11" y="1.67" class="k">DFA91C8A</text><text x="64.128" y="1.67" class="k">2AD047A7</text></symbol><symbol id="26"><text x="1.002" y="1.67" class="k">C247ACD0</text><text x="10.02" y="1.67" class="k">37A393C3</text><text x="19.038" y="1.67" class="k">EEBE8CDE</text><text x="28.056" y="1.67" class="k">70CECAFC</text><text x="37.074" y="1.67" class="k">1975ABFD</text><text x="46.092" y="1.67" class="k">B731CA73</text><text x="55.11" y="1.67" class="k">20902800</text><text x="64.128" y="1.67" class="k">F2B3DCF2</text></symbol><symbol id="27"><text x="1.002" y="1.67" class="k">4558CE91</text><text x="10.02" y="1.67" class="k">D3E9B819</text><text x="19.038" y="1.67" class="k">BCF06EE5</text><text x="28.056" y="1.67" class="k">0B328555</text><text x="37.074" y="1.67" class="k">D6C9A2FD</text><text x="46.092" y="1.67" class="k">9212D978</text><text x="55.11" y="1.67" class="k">A3F12836</text><text x="64.128" y="1.67" class="k">95E20B52</text></symbol><symbol id="28"><text x="1.002" y="1.67" class="k">1953066D</text><text x="10.02" y="1.67" class="k">15C8527A</text><text x="19.038" y="1.67" class="k">0976B1C4</text><text x="28.056" y="1.67" class="k">CEF5E70E</text><text x="37.074" y="1.67" class="k">F02E47D6</text><text x="46.092" y="1.67" class="k">4F223801</text><text x="55.11" y="1.67" class="k">8F9F1613</text><text x="64.128" y="1.67" class="k">159DA980</text></symbol><symbol id="29"><text x="1.002" y="1.67" class="k">05B565C0</text><text x="10.02" y="1.67" class="k">083A21D2</text><text x="19.038" y="1.67" class="k">F299D675</text><text x="28.056" y="1.67" class="k">6C928B3D</text><text x="37.074" y="1.67" class="k">22503246</text><text x="46.092" y="1.67" class="k">5656E6DC</text><text x="55.11" y="1.67" class="k">5F9B8FD2</text><text x="64.128" y="1.67" class="k">DDA087C0</text></symbol><symbol id="30"><text x="1.002" y="1.67" class="k">C311E4D6</text><text x="10.02" y="1.67" class="k">62E33726</text><text x="19.038" y="1.67" class="k">0321E49E</text><text x="28.056" y="1.67" class="k">E4ECA4BF</text><text x="37.074" y="1.67" class="k">08F67247</text><text x="46.092" y="1.67" class="k">DF90A67D</text><text x="55.11" y="1.67" class="k">907B2292</text><text x="64.128" y="1.67" class="k">EBE9142C</text></symbol><symbol id="31"><text x="1.002" y="1.67" class="k">7292B426</text><text x="10.02" y="1.67" class="k">A0C481C8</text><text x="19.038" y="1.67" class="k">085518C5</text><text x="28.056" y="1.67" class="k">A067E45F</text><text x="37.074" y="1.67" class="k">5ED7875D</text><text x="46.092" y="1.67" class="k">303B6395</text><text x="55.11" y="1.67" class="k">55136A94</text><text x="64.128" y="1.67" class="k">589DCC1B</text></symbol><symbol id="32"><text x="1.002" y="1.67" class="k">BD96BEB6</text><text x="10.02" y="1.67" class="k">AA2933D6</text><text x="19.038" y="1.67" class="k">8886316B</text><text x="28.056" y="1.67" class="k">E72DFC38</text><text x="37.074" y="1.67" class="k">0CAF1C45</text><text x="46.092" y="1.67" class="k">2E15E069</text><text x="55.11" y="1.67" class="k">EB1133FA</text><text x="64.128" y="1.67" class="k">63729890</text></symbol><symbol id="33"><text x="1.002" y="1.67" class="k">63020301</text><text x="10.02" y="1.67" class="k">0001</text></symbol><symbol id="34"><text y="1.67" class="k">RP/0/RP0/CPU0:mrstn-7816-1.cisco.com#exit</text></symbol><symbol id="35"><text y="1.67" class="k">Connection</text><text x="11.022" y="1.67" class="k">to</text><text x="14.028" y="1.67" class="k">mrstn-7816-1.cisco.com</text><text x="37.074" y="1.67" class="k">closed.</text></symbol><symbol id="a"><path fill="transparent" d="M0 0h117v32H0z"/></symbol><symbol id="b"><path fill="#6f7683" d="M0 0h1.102v2.171H0z"/></symbol></defs><path class="a" d="M0 0h117v69.472H0z"/><g style="animation-duration:43.222225s;animation-iteration-count:infinite;animation-name:p;animation-timing-function:steps(1,end)"><svg width="6669"><svg><use xlink:href="#a"/><use xlink:href="#b" x="-.004"/></svg><svg x="117"><use xlink:href="#a"/><use xlink:href="#b" x="-.004"/></svg><svg x="234"><use xlink:href="#a"/><use xlink:href="#b" x="1.996" y="4.317"/><use xlink:href="#1" y="2.171"/><use xlink:href="#2" y="4.342"/></svg><svg x="351"><use xlink:href="#a"/><use xlink:href="#b" x="1.996" y="4.317"/><use xlink:href="#1" y="2.171"/><use xlink:href="#2" y="4.342"/></svg><svg x="468"><use xlink:href="#a"/><use xlink:href="#b" x="3.996" y="4.317"/><use xlink:href="#1" y="2.171"/><use xlink:href="#3" y="4.342"/></svg><svg x="585"><use xlink:href="#a"/><use xlink:href="#b" x="13.996" y="4.317"/><use xlink:href="#1" y="2.171"/><text y="6.012" class="g">$</text><text x="2.004" y="6.012" class="k">#</text><text x="4.008" y="6.012" class="k">Take</text><text x="9.018" y="6.012" class="k">a</text><text x="11.022" y="6.012" class="k">loo</text></svg><svg x="702"><use xlink:href="#a"/><use xlink:href="#b" x="31.996" y="4.317"/><use xlink:href="#1" y="2.171"/><text y="6.012" class="g">$</text><text x="2.004" y="6.012" class="k">#</text><text x="4.008" y="6.012" class="k">Take</text><text x="9.018" y="6.012" class="k">a</text><text x="11.022" y="6.012" class="k">look</text><text x="16.032" y="6.012" class="k">at</text><text x="19.038" y="6.012" class="k">the</text><text x="23.046" y="6.012" class="k">input</text><text x="29.058" y="6.012" class="k">fil</text></svg><svg x="819"><use xlink:href="#a"/><use xlink:href="#b" x="32.996" y="4.317"/><use xlink:href="#1" y="2.171"/><text y="6.012" class="g">$</text><text x="2.004" y="6.012" class="k">#</text><text x="4.008" y="6.012" class="k">Take</text><text x="9.018" y="6.012" class="k">a</text><text x="11.022" y="6.012" class="k">look</text><text x="16.032" y="6.012" class="k">at</text><text x="19.038" y="6.012" class="k">the</text><text x="23.046" y="6.012" class="k">input</text><text x="29.058" y="6.012" class="k">file</text></svg><svg x="936"><use xlink:href="#a"/><use xlink:href="#b" x="1.996" y="4.317"/><use xlink:href="#1" y="2.171"/><use xlink:href="#2" y="4.342"/></svg><svg x="1053"><use xlink:href="#a"/><use xlink:href="#b" x="6.996" y="4.317"/><use xlink:href="#1" y="2.171"/><text y="6.012" class="g">$</text><text x="2.004" y="6.012" class="k">less</text></svg><svg x="1170"><use xlink:href="#a"/><use xlink:href="#b" x="27.996" y="4.317"/><use xlink:href="#1" y="2.171"/><text y="6.012" class="g">$</text><text x="2.004" y="6.012" class="k">less</text><text x="7.014" y="6.012" class="k">../input/action/crypt</text></svg><svg x="1287"><use xlink:href="#a"/><use xlink:href="#b" x="32.996" y="4.317"/><use xlink:href="#1" y="2.171"/><text y="6.012" class="g">$</text><text x="2.004" y="6.012" class="k">less</text><text x="7.014" y="6.012" class="k">../input/action/crypto.jso</text></svg><svg x="1404"><use xlink:href="#a"/><use xlink:href="#b" x="33.996" y="4.317"/><use xlink:href="#1" y="2.171"/><use xlink:href="#4" y="4.342"/></svg><svg x="1521"><use xlink:href="#a"/><use xlink:href="#b" x="-.004" y="6.488"/><use xlink:href="#1" y="2.171"/><use xlink:href="#4" y="4.342"/></svg><svg x="1638"><use xlink:href="#a"/><use xlink:href="#b" x="-.004" y="17.343"/><use xlink:href="#1" y="2.171"/><use xlink:href="#4" y="4.342"/><use xlink:href="#5" y="6.513"/><use xlink:href="#6" y="8.684"/><use xlink:href="#7" y="10.855"/><use xlink:href="#8" y="13.026"/><use xlink:href="#9" y="15.197"/></svg><svg x="1755"><use xlink:href="#a"/><use xlink:href="#b" x="-.004" y="19.514"/><use xlink:href="#1" y="2.171"/><use xlink:href="#4" y="4.342"/><use xlink:href="#5" y="6.513"/><use xlink:href="#6" y="8.684"/><use xlink:href="#7" y="10.855"/><use xlink:href="#8" y="13.026"/><use xlink:href="#9" y="15.197"/><use xlink:href="#10" y="17.368"/></svg><svg x="1872"><use xlink:href="#a"/><use xlink:href="#b" x="1.996" y="23.856"/><use xlink:href="#1" y="2.171"/><use xlink:href="#4" y="4.342"/><use xlink:href="#5" y="6.513"/><use xlink:href="#6" y="8.684"/><use xlink:href="#7" y="10.855"/><use xlink:href="#8" y="13.026"/><use xlink:href="#9" y="15.197"/><use xlink:href="#10" y="17.368"/><use xlink:href="#1" y="21.71"/><use xlink:href="#2" y="23.881"/></svg><svg x="1989"><use xlink:href="#a"/><use xlink:href="#b" x="1.996" y="4.317"/><use xlink:href="#1" y="2.171"/><use xlink:href="#2" y="4.342"/></svg><svg x="2106"><use xlink:href="#a"/><use xlink:href="#b" x="9.996" y="4.317"/><use xlink:href="#1" y="2.171"/><text y="6.012" class="g">$</text><text x="2.004" y="6.012" class="k">#</text><text x="4.008" y="6.012" class="k">Execut</text></svg><svg x="2223"><use xlink:href="#a"/><use xlink:href="#b" x="25.996" y="4.317"/><use xlink:href="#1" y="2.171"/><text y="6.012" class="g">$</text><text x="2.004" y="6.012" class="k">#</text><text x="4.008" y="6.012" class="k">Execute</text><text x="12.024" y="6.012" class="k">the</text><text x="16.032" y="6.012" class="k">action</text><text x="23.046" y="6.012" class="k">in</text></svg><svg x="2340"><use xlink:href="#a"/><use xlink:href="#b" x="39.996" y="4.317"/><use xlink:href="#1" y="2.171"/><text y="6.012" class="g">$</text><text x="2.004" y="6.012" class="k">#</text><text x="4.008" y="6.012" class="k">Execute</text><text x="12.024" y="6.012" class="k">the</text><text x="16.032" y="6.012" class="k">action</text><text x="23.046" y="6.012" class="k">in</text><text x="26.052" y="6.012" class="k">the</text><text x="30.06" y="6.012" class="k">input</text><text x="36.072" y="6.012" class="k">file</text></svg><svg x="2457"><use xlink:href="#a"/><use xlink:href="#b" x="1.996" y="4.317"/><use xlink:href="#1" y="2.171"/><use xlink:href="#2" y="4.342"/></svg><svg x="2574"><use xlink:href="#a"/><use xlink:href="#b" x="8.996" y="4.317"/><use xlink:href="#1" y="2.171"/><text y="6.012" class="g">$</text><text x="2.004" y="6.012" class="k">./actio</text></svg><svg x="2691"><use xlink:href="#a"/><use xlink:href="#b" x="26.996" y="4.317"/><use xlink:href="#1" y="2.171"/><text y="6.012" class="g">$</text><text x="2.004" y="6.012" class="k">./action</text><text x="11.022" y="6.012" class="k">-act</text><text x="16.032" y="6.012" class="k">&quot;../input/a</text></svg><svg x="2808"><use xlink:href="#a"/><use xlink:href="#b" x="41.996" y="4.317"/><use xlink:href="#1" y="2.171"/><text y="6.012" class="g">$</text><text x="2.004" y="6.012" class="k">./action</text><text x="11.022" y="6.012" class="k">-act</text><text x="16.032" y="6.012" class="k">&quot;../input/action/crypto.js</text></svg><svg x="2925"><use xlink:href="#a"/><use xlink:href="#b" x="44.996" y="4.317"/><use xlink:href="#1" y="2.171"/><use xlink:href="#11" y="4.342"/></svg><svg x="3042"><use xlink:href="#a"/><use xlink:href="#b" x="-.004" y="6.488"/><use xlink:href="#1" y="2.171"/><use xlink:href="#11" y="4.342"/></svg><svg x="3159"><use xlink:href="#a"/><use xlink:href="#b" x="-.004" y="13.001"/><use xlink:href="#1" y="2.171"/><use xlink:href="#11" y="4.342"/><use xlink:href="#12" y="8.684"/></svg><svg x="3276"><use xlink:href="#a"/><use xlink:href="#b" x="-.004" y="15.172"/><use xlink:href="#1" y="2.171"/><use xlink:href="#11" y="4.342"/><use xlink:href="#12" y="8.684"/><use xlink:href="#13" y="13.026"/></svg><svg x="3393"><use xlink:href="#a"/><use xlink:href="#b" x="1.996" y="19.514"/><use xlink:href="#1" y="2.171"/><use xlink:href="#11" y="4.342"/><use xlink:href="#12" y="8.684"/><use xlink:href="#13" y="13.026"/><use xlink:href="#1" y="17.368"/><use xlink:href="#2" y="19.539"/></svg><svg x="3510"><use xlink:href="#a"/><use xlink:href="#b" x="1.996" y="4.317"/><use xlink:href="#1" y="2.171"/><use xlink:href="#2" y="4.342"/></svg><svg x="3627"><use xlink:href="#a"/><use xlink:href="#b" x="3.996" y="4.317"/><use xlink:href="#1" y="2.171"/><use xlink:href="#3" y="4.342"/></svg><svg x="3744"><use xlink:href="#a"/><use xlink:href="#b" x="21.996" y="4.317"/><use xlink:href="#1" y="2.171"/><text y="6.012" class="g">$</text><text x="2.004" y="6.012" class="k">#</text><text x="4.008" y="6.012" class="k">Log</text><text x="8.016" y="6.012" class="k">into</text><text x="13.026" y="6.012" class="k">the</text><text x="17.034" y="6.012" class="k">devic</text></svg><svg x="3861"><use xlink:href="#a"/><use xlink:href="#b" x="34.996" y="4.317"/><use xlink:href="#1" y="2.171"/><text y="6.012" class="g">$</text><text x="2.004" y="6.012" class="k">#</text><text x="4.008" y="6.012" class="k">Log</text><text x="8.016" y="6.012" class="k">into</text><text x="13.026" y="6.012" class="k">the</text><text x="17.034" y="6.012" class="k">device</text><text x="24.048" y="6.012" class="k">and</text><text x="28.056" y="6.012" class="k">verify</text></svg><svg x="3978"><use xlink:href="#a"/><use xlink:href="#b" x="39.996" y="4.317"/><use xlink:href="#1" y="2.171"/><text y="6.012" class="g">$</text><text x="2.004" y="6.012" class="k">#</text><text x="4.008" y="6.012" class="k">Log</text><text x="8.016" y="6.012" class="k">into</text><text x="13.026" y="6.012" class="k">the</text><text x="17.034" y="6.012" class="k">device</text><text x="24.048" y="6.012" class="k">and</text><text x="28.056" y="6.012" class="k">verify</text><text x="35.07" y="6.012" class="k">the</text><text x="39.078" y="6.012" class="k">k</text></svg><svg x="4095"><use xlink:href="#a"/><use xlink:href="#b" x="54.996" y="4.317"/><use xlink:href="#1" y="2.171"/><text y="6.012" class="g">$</text><text x="2.004" y="6.012" class="k">#</text><text x="4.008" y="6.012" class="k">Log</text><text x="8.016" y="6.012" class="k">into</text><text x="13.026" y="6.012" class="k">the</text><text x="17.034" y="6.012" class="k">device</text><text x="24.048" y="6.012" class="k">and</text><text x="28.056" y="6.012" class="k">verify</text><text x="35.07" y="6.012" class="k">the</text><text x="39.078" y="6.012" class="k">key</text><text x="43.086" y="6.012" class="k">was</text><text x="47.094" y="6.012" class="k">generate</text></svg><svg x="4212"><use xlink:href="#a"/><use xlink:href="#b" x="55.996" y="4.317"/><use xlink:href="#1" y="2.171"/><text y="6.012" class="g">$</text><text x="2.004" y="6.012" class="k">#</text><text x="4.008" y="6.012" class="k">Log</text><text x="8.016" y="6.012" class="k">into</text><text x="13.026" y="6.012" class="k">the</text><text x="17.034" y="6.012" class="k">device</text><text x="24.048" y="6.012" class="k">and</text><text x="28.056" y="6.012" class="k">verify</text><text x="35.07" y="6.012" class="k">the</text><text x="39.078" y="6.012" class="k">key</text><text x="43.086" y="6.012" class="k">was</text><text x="47.094" y="6.012" class="k">generated</text></svg><svg x="4329"><use xlink:href="#a"/><use xlink:href="#b" x="1.996" y="4.317"/><use xlink:href="#1" y="2.171"/><use xlink:href="#2" y="4.342"/></svg><svg x="4446"><use xlink:href="#a"/><use xlink:href="#b" x="5.996" y="4.317"/><use xlink:href="#1" y="2.171"/><use xlink:href="#14" y="4.342"/></svg><svg x="4563"><use xlink:href="#a"/><use xlink:href="#b" x="-.004" y="6.488"/><use xlink:href="#1" y="2.171"/><use xlink:href="#14" y="4.342"/></svg><svg x="4680"><use xlink:href="#a"/><use xlink:href="#b" x="9.996" y="6.488"/><use xlink:href="#1" y="2.171"/><use xlink:href="#14" y="4.342"/><use xlink:href="#15" y="6.513"/></svg><svg x="4797"><use xlink:href="#a"/><use xlink:href="#b" x="-.004" y="8.659"/><use xlink:href="#1" y="2.171"/><use xlink:href="#14" y="4.342"/><use xlink:href="#15" y="6.513"/></svg><svg x="4914"><use xlink:href="#a"/><use xlink:href="#b" x="-.004" y="13.001"/><use xlink:href="#1" y="2.171"/><use xlink:href="#14" y="4.342"/><use xlink:href="#15" y="6.513"/></svg><svg x="5031"><use xlink:href="#a"/><use xlink:href="#b" x="36.996" y="13.001"/><use xlink:href="#1" y="2.171"/><use xlink:href="#14" y="4.342"/><use xlink:href="#15" y="6.513"/><use xlink:href="#16" y="13.026"/></svg><svg x="5148"><use xlink:href="#a"/><use xlink:href="#b" x="83.996" y="13.001"/><use xlink:href="#1" y="2.171"/><use xlink:href="#14" y="4.342"/><use xlink:href="#15" y="6.513"/><use xlink:href="#17" y="13.026"/></svg><svg x="5265"><use xlink:href="#a"/><use xlink:href="#b" x="-.004" y="15.172"/><use xlink:href="#1" y="2.171"/><use xlink:href="#14" y="4.342"/><use xlink:href="#15" y="6.513"/><use xlink:href="#17" y="13.026"/></svg><svg x="5382"><use xlink:href="#a"/><use xlink:href="#b" x="-.004" y="17.343"/><use xlink:href="#1" y="2.171"/><use xlink:href="#14" y="4.342"/><use xlink:href="#15" y="6.513"/><use xlink:href="#17" y="13.026"/><use xlink:href="#18" y="15.197"/></svg><svg x="5499"><use xlink:href="#a"/><use xlink:href="#b" x="-.004" y="52.079"/><use xlink:href="#1" y="2.171"/><use xlink:href="#14" y="4.342"/><use xlink:href="#15" y="6.513"/><use xlink:href="#17" y="13.026"/><use xlink:href="#18" y="15.197"/><use xlink:href="#19" y="17.368"/><use xlink:href="#20" y="19.539"/><use xlink:href="#21" y="21.71"/><use xlink:href="#22" y="23.881"/><use xlink:href="#23" y="26.052"/><use xlink:href="#24" y="28.223"/><use xlink:href="#25" y="30.394"/><use xlink:href="#26" y="32.565"/><use xlink:href="#27" y="34.736"/><use xlink:href="#28" y="36.907"/><use xlink:href="#29" y="39.078"/><use xlink:href="#30" y="41.249"/><use xlink:href="#31" y="43.42"/><use xlink:href="#32" y="45.591"/><use xlink:href="#33" y="47.762"/></svg><svg x="5616"><use xlink:href="#a"/><use xlink:href="#b" x="36.996" y="52.079"/><use xlink:href="#1" y="2.171"/><use xlink:href="#14" y="4.342"/><use xlink:href="#15" y="6.513"/><use xlink:href="#17" y="13.026"/><use xlink:href="#18" y="15.197"/><use xlink:href="#19" y="17.368"/><use xlink:href="#20" y="19.539"/><use xlink:href="#21" y="21.71"/><use xlink:href="#22" y="23.881"/><use xlink:href="#23" y="26.052"/><use xlink:href="#24" y="28.223"/><use xlink:href="#25" y="30.394"/><use xlink:href="#26" y="32.565"/><use xlink:href="#27" y="34.736"/><use xlink:href="#28" y="36.907"/><use xlink:href="#29" y="39.078"/><use xlink:href="#30" y="41.249"/><use xlink:href="#31" y="43.42"/><use xlink:href="#32" y="45.591"/><use xlink:href="#33" y="47.762"/><use xlink:href="#16" y="52.104"/></svg><svg x="5733"><use xlink:href="#a"/><use xlink:href="#b" x="37.996" y="52.079"/><use xlink:href="#1" y="2.171"/><use xlink:href="#14" y="4.342"/><use xlink:href="#15" y="6.513"/><use xlink:href="#17" y="13.026"/><use xlink:href="#18" y="15.197"/><use xlink:href="#19" y="17.368"/><use xlink:href="#20" y="19.539"/><use xlink:href="#21" y="21.71"/><use xlink:href="#22" y="23.881"/><use xlink:href="#23" y="26.052"/><use xlink:href="#24" y="28.223"/><use xlink:href="#25" y="30.394"/><use xlink:href="#26" y="32.565"/><use xlink:href="#27" y="34.736"/><use xlink:href="#28" y="36.907"/><use xlink:href="#29" y="39.078"/><use xlink:href="#30" y="41.249"/><use xlink:href="#31" y="43.42"/><use xlink:href="#32" y="45.591"/><use xlink:href="#33" y="47.762"/><text y="53.774" class="k">RP/0/RP0/CPU0:mrstn-7816-1.cisco.com#e</text></svg><svg x="5850"><use xlink:href="#a"/><use xlink:href="#b" x="38.996" y="52.079"/><use xlink:href="#1" y="2.171"/><use xlink:href="#14" y="4.342"/><use xlink:href="#15" y="6.513"/><use xlink:href="#17" y="13.026"/><use xlink:href="#18" y="15.197"/><use xlink:href="#19" y="17.368"/><use xlink:href="#20" y="19.539"/><use xlink:href="#21" y="21.71"/><use xlink:href="#22" y="23.881"/><use xlink:href="#23" y="26.052"/><use xlink:href="#24" y="28.223"/><use xlink:href="#25" y="30.394"/><use xlink:href="#26" y="32.565"/><use xlink:href="#27" y="34.736"/><use xlink:href="#28" y="36.907"/><use xlink:href="#29" y="39.078"/><use xlink:href="#30" y="41.249"/><use xlink:href="#31" y="43.42"/><use xlink:href="#32" y="45.591"/><use xlink:href="#33" y="47.762"/><text y="53.774" class="k">RP/0/RP0/CPU0:mrstn-7816-1.cisco.com#ex</text></svg><svg x="5967"><use xlink:href="#a"/><use xlink:href="#b" x="39.996" y="52.079"/><use xlink:href="#1" y="2.171"/><use xlink:href="#14" y="4.342"/><use xlink:href="#15" y="6.513"/><use xlink:href="#17" y="13.026"/><use xlink:href="#18" y="15.197"/><use xlink:href="#19" y="17.368"/><use xlink:href="#20" y="19.539"/><use xlink:href="#21" y="21.71"/><use xlink:href="#22" y="23.881"/><use xlink:href="#23" y="26.052"/><use xlink:href="#24" y="28.223"/><use xlink:href="#25" y="30.394"/><use xlink:href="#26" y="32.565"/><use xlink:href="#27" y="34.736"/><use xlink:href="#28" y="36.907"/><use xlink:href="#29" y="39.078"/><use xlink:href="#30" y="41.249"/><use xlink:href="#31" y="43.42"/><use xlink:href="#32" y="45.591"/><use xlink:href="#33" y="47.762"/><text y="53.774" class="k">RP/0/RP0/CPU0:mrstn-7816-1.cisco.com#exi</text></svg><svg x="6084"><use xlink:href="#a"/><use xlink:href="#b" x="40.996" y="52.079"/><use xlink:href="#1" y="2.171"/><use xlink:href="#14" y="4.342"/><use xlink:href="#15" y="6.513"/><use xlink:href="#17" y="13.026"/><use xlink:href="#18" y="15.197"/><use xlink:href="#19" y="17.368"/><use xlink:href="#20" y="19.539"/><use xlink:href="#21" y="21.71"/><use xlink:href="#22" y="23.881"/><use xlink:href="#23" y="26.052"/><use xlink:href="#24" y="28.223"/><use xlink:href="#25" y="30.394"/><use xlink:href="#26" y="32.565"/><use xlink:href="#27" y="34.736"/><use xlink:href="#28" y="36.907"/><use xlink:href="#29" y="39.078"/><use xlink:href="#30" y="41.249"/><use xlink:href="#31" y="43.42"/><use xlink:href="#32" y="45.591"/><use xlink:href="#33" y="47.762"/><use xlink:href="#34" y="52.104"/></svg><svg x="6201"><use xlink:href="#a"/><use xlink:href="#b" x="-.004" y="54.25"/><use xlink:href="#1" y="2.171"/><use xlink:href="#14" y="4.342"/><use xlink:href="#15" y="6.513"/><use xlink:href="#17" y="13.026"/><use xlink:href="#18" y="15.197"/><use xlink:href="#19" y="17.368"/><use xlink:href="#20" y="19.539"/><use xlink:href="#21" y="21.71"/><use xlink:href="#22" y="23.881"/><use xlink:href="#23" y="26.052"/><use xlink:href="#24" y="28.223"/><use xlink:href="#25" y="30.394"/><use xlink:href="#26" y="32.565"/><use xlink:href="#27" y="34.736"/><use xlink:href="#28" y="36.907"/><use xlink:href="#29" y="39.078"/><use xlink:href="#30" y="41.249"/><use xlink:href="#31" y="43.42"/><use xlink:href="#32" y="45.591"/><use xlink:href="#33" y="47.762"/><use xlink:href="#34" y="52.104"/></svg><svg x="6318"><use xlink:href="#a"/><use xlink:href="#b" x="-.004" y="56.421"/><use xlink:href="#1" y="2.171"/><use xlink:href="#14" y="4.342"/><use xlink:href="#15" y="6.513"/><use xlink:href="#17" y="13.026"/><use xlink:href="#18" y="15.197"/><use xlink:href="#19" y="17.368"/><use xlink:href="#20" y="19.539"/><use xlink:href="#21" y="21.71"/><use xlink:href="#22" y="23.881"/><use xlink:href="#23" y="26.052"/><use xlink:href="#24" y="28.223"/><use xlink:href="#25" y="30.394"/><use xlink:href="#26" y="32.565"/><use xlink:href="#27" y="34.736"/><use xlink:href="#28" y="36.907"/><use xlink:href="#29" y="39.078"/><use xlink:href="#30" y="41.249"/><use xlink:href="#31" y="43.42"/><use xlink:href="#32" y="45.591"/><use xlink:href="#33" y="47.762"/><use xlink:href="#34" y="52.104"/><use xlink:href="#35" y="54.275"/></svg><svg x="6435"><use xlink:href="#a"/><use xlink:href="#b" x="1.996" y="60.763"/><use xlink:href="#1" y="2.171"/><use xlink:href="#14" y="4.342"/><use xlink:href="#15" y="6.513"/><use xlink:href="#17" y="13.026"/><use xlink:href="#18" y="15.197"/><use xlink:href="#19" y="17.368"/><use xlink:href="#20" y="19.539"/><use xlink:href="#21" y="21.71"/><use xlink:href="#22" y="23.881"/><use xlink:href="#23" y="26.052"/><use xlink:href="#24" y="28.223"/><use xlink:href="#25" y="30.394"/><use xlink:href="#26" y="32.565"/><use xlink:href="#27" y="34.736"/><use xlink:href="#28" y="36.907"/><use xlink:href="#29" y="39.078"/><use xlink:href="#30" y="41.249"/><use xlink:href="#31" y="43.42"/><use xlink:href="#32" y="45.591"/><use xlink:href="#33" y="47.762"/><use xlink:href="#34" y="52.104"/><use xlink:href="#35" y="54.275"/><use xlink:href="#1" y="58.617"/><use xlink:href="#2" y="60.788"/></svg><svg x="6552"><use xlink:href="#a"/><use xlink:href="#b" x="-.004" y="62.934"/><use xlink:href="#1" y="2.171"/><use xlink:href="#14" y="4.342"/><use xlink:href="#15" y="6.513"/><use xlink:href="#17" y="13.026"/><use xlink:href="#18" y="15.197"/><use xlink:href="#19" y="17.368"/><use xlink:href="#20" y="19.539"/><use xlink:href="#21" y="21.71"/><use xlink:href="#22" y="23.881"/><use xlink:href="#23" y="26.052"/><use xlink:href="#24" y="28.223"/><use xlink:href="#25" y="30.394"/><use xlink:href="#26" y="32.565"/><use xlink:href="#27" y="34.736"/><use xlink:href="#28" y="36.907"/><use xlink:href="#29" y="39.078"/><use xlink:href="#30" y="41.249"/><use xlink:href="#31" y="43.42"/><use xlink:href="#32" y="45.591"/><use xlink:href="#33" y="47.762"/><use xlink:href="#34" y="52.104"/><use xlink:href="#35" y="54.275"/><use xlink:href="#1" y="58.617"/><text y="62.458" class="g">$</text><text x="2.004" y="62.458" class="k">logout</text></svg></svg></g></g></svg></svg>