<svg xmlns="http://www.w3.org/2000/svg" xmlns:xlink="http://www.w3.org/1999/xlink" width="1210" height="754.72"><rect width="1210" height="754.72" rx="5" ry="5" class="a"/><svg y="0%" x="0%"><circle cx="20" cy="20" r="6" fill="#ff5f58"/><circle cx="40" cy="20" r="6" fill="#ffbd2e"/><circle cx="60" cy="20" r="6" fill="#18c132"/></svg><svg height="694.72" viewBox="0 0 117 69.472" width="1170" x="15" xmlns="http://www.w3.org/2000/svg" xmlns:xlink="http://www.w3.org/1999/xlink" y="50"><style>@keyframes q{0%{transform:translateX(0)}2.97%{transform:translateX(-117px)}3.36%{transform:translateX(-234px)}5.17%{transform:translateX(-351px)}7.53%{transform:translateX(-702px)}15.12%{transform:translateX(-819px)}16.94%{transform:translateX(-1287px)}18.87%{transform:translateX(-1404px)}18.97%{transform:translateX(-1755px)}19.14%{transform:translateX(-1872px)}33.84%{transform:translateX(-1989px)}35.29%{transform:translateX(-3042px)}45.48%{transform:translateX(-3159px)}46.97%{transform:translateX(-3744px)}48.07%{transform:translateX(-3861px)}51.1%{transform:translateX(-3978px)}51.3%{transform:translateX(-4095px)}60.84%{transform:translateX(-4212px)}62.34%{transform:translateX(-4563px)}68.15%{transform:translateX(-4680px)}70.04%{transform:translateX(-4914px)}72.21%{transform:translateX(-5031px)}72.27%{transform:translateX(-5382px)}85.49%{transform:translateX(-5499px)}95.77%{transform:translateX(-5616px)}95.97%{transform:translateX(-5733px)}to{transform:translateX(-5850px)}}.a{fill:#282d35}.g{fill:#fff;font-weight:700}.k{fill:#b9c0cb}.l{fill:#e88388}.m{fill:#d290e4}</style><g font-size="1.67" font-family="Monaco,Consolas,Menlo,'Bitstream Vera Sans Mono','Powerline Symbols',monospace"><defs><symbol id="1"><text y="1.67" fill="#d75f00" font-weight="700">nleiva</text><text x="7.014" y="1.67" class="g">in</text><text x="10.02" y="1.67" fill="#5f8700" font-weight="700">~/go/src/github.com/nleiva/xrgrpc/example/action</text><text x="59.118" y="1.67" class="g">on</text><text x="62.124" y="1.67" fill="#5f5faf" font-weight="700">master</text><text x="69.138" y="1.67" fill="#0087ff" font-weight="700">[?]</text></symbol><symbol id="2"><text y="1.67" class="g">$</text></symbol><symbol id="3"><text y="1.67" class="g">$</text><text x="2.004" y="1.67" class="k">less</text><text x="7.014" y="1.67" class="k">../input/action/ping6.json</text></symbol><symbol id="4"><text y="1.67" class="l">{</text></symbol><symbol id="5"><text x="2.004" y="1.67" class="k">&quot;Cisco-IOS-XR-ping-act:ping&quot;:</text><text x="31.062" y="1.67" class="l">{</text></symbol><symbol id="6"><text x="4.008" y="1.67" class="k">&quot;destination&quot;:</text><text x="18.036" y="1.67" class="l">{</text></symbol><symbol id="7"><text x="6.012" y="1.67" class="k">&quot;destination&quot;:&quot;</text><text x="21.042" y="1.67" class="l">2001:420:2cff:1204::1</text><text x="42.084" y="1.67" class="k">&quot;</text><text x="43.086" y="1.67" class="l">,</text></symbol><symbol id="8"><text x="6.012" y="1.67" class="k">&quot;timeout&quot;:</text><text x="17.034" y="1.67" class="m">1</text><text x="18.036" y="1.67" class="l">,</text></symbol><symbol id="9"><text x="6.012" y="1.67" class="k">&quot;data-size&quot;:</text><text x="19.038" y="1.67" class="m">1350</text><text x="23.046" y="1.67" class="l">,</text></symbol><symbol id="10"><text x="6.012" y="1.67" class="k">&quot;repeat-count&quot;:</text><text x="22.044" y="1.67" class="m">2</text></symbol><symbol id="11"><text x="4.008" y="1.67" class="l">}</text></symbol><symbol id="12"><text x="2.004" y="1.67" class="l">}</text></symbol><symbol id="13"><text y="1.67" class="l">}</text></symbol><symbol id="14"><text y="1.67" class="g">$</text><text x="2.004" y="1.67" class="k">./action</text><text x="11.022" y="1.67" class="k">-act</text><text x="16.032" y="1.67" class="k">&quot;../input/action/ping6.json&quot;</text><text x="45.09" y="1.67" class="k">&gt;</text><text x="47.094" y="1.67" class="k">out.json</text></symbol><symbol id="15"><text y="1.67" class="k">2018/05/31</text><text x="11.022" y="1.67" class="k">13:25:39</text><text x="20.04" y="1.67" class="k">This</text><text x="25.05" y="1.67" class="k">process</text><text x="33.066" y="1.67" class="k">took</text><text x="38.076" y="1.67" class="k">1.104377362s</text></symbol><symbol id="16"><text y="1.67" class="g">$</text><text x="2.004" y="1.67" class="k">less</text><text x="7.014" y="1.67" class="k">out.json</text></symbol><symbol id="17"><text y="1.67" class="k">output</text><text x="7.014" y="1.67" class="k">from</text><text x="12.024" y="1.67" class="l">[</text><text x="13.026" y="1.67" class="m">2001</text><text x="17.034" y="1.67" class="k">:</text><text x="18.036" y="1.67" class="m">420</text><text x="21.042" y="1.67" class="k">:2cff:</text><text x="27.054" y="1.67" class="m">1204</text><text x="31.062" y="1.67" class="k">::</text><text x="33.066" y="1.67" class="m">7816</text><text x="37.074" y="1.67" class="k">:</text><text x="38.076" y="1.67" class="m">1</text><text x="39.078" y="1.67" class="l">]</text><text x="40.08" y="1.67" class="k">:</text><text x="41.082" y="1.67" class="m">57344</text></symbol><symbol id="18"><text x="1.002" y="1.67" class="l">{</text></symbol><symbol id="19"><text x="1.002" y="1.67" class="k">&quot;Cisco-IOS-XR-ping-act:output&quot;:</text><text x="33.066" y="1.67" class="l">{</text></symbol><symbol id="20"><text x="2.004" y="1.67" class="k">&quot;ping-response&quot;:</text><text x="19.038" y="1.67" class="l">{</text></symbol><symbol id="21"><text x="3.006" y="1.67" class="k">&quot;ipv6&quot;:</text><text x="11.022" y="1.67" class="l">{</text></symbol><symbol id="22"><text x="4.008" y="1.67" class="k">&quot;destination&quot;:</text><text x="19.038" y="1.67" class="k">&quot;</text><text x="20.04" y="1.67" class="l">2001:420:2cff:1204::1</text><text x="41.082" y="1.67" class="k">&quot;</text><text x="42.084" y="1.67" class="l">,</text></symbol><symbol id="23"><text x="4.008" y="1.67" class="k">&quot;repeat-count&quot;:</text><text x="20.04" y="1.67" class="k">&quot;</text><text x="21.042" y="1.67" class="l">2</text><text x="22.044" y="1.67" class="k">&quot;</text><text x="23.046" y="1.67" class="l">,</text></symbol><symbol id="24"><text x="4.008" y="1.67" class="k">&quot;data-size&quot;:</text><text x="17.034" y="1.67" class="k">&quot;</text><text x="18.036" y="1.67" class="l">1350</text><text x="22.044" y="1.67" class="k">&quot;</text><text x="23.046" y="1.67" class="l">,</text></symbol><symbol id="25"><text x="4.008" y="1.67" class="k">&quot;timeout&quot;:</text><text x="15.03" y="1.67" class="k">&quot;</text><text x="16.032" y="1.67" class="l">1</text><text x="17.034" y="1.67" class="k">&quot;</text><text x="18.036" y="1.67" class="l">,</text></symbol><symbol id="26"><text x="4.008" y="1.67" class="k">&quot;pattern&quot;:</text><text x="15.03" y="1.67" class="k">&quot;</text><text x="16.032" y="1.67" class="l">abcd</text><text x="20.04" y="1.67" class="k">&quot;</text><text x="21.042" y="1.67" class="l">,</text></symbol><symbol id="27"><text x="4.008" y="1.67" class="k">&quot;rotate-pattern&quot;:</text><text x="22.044" y="1.67" fill="#71bef2" font-weight="700">false</text><text x="27.054" y="1.67" class="l">,</text></symbol><symbol id="28"><text x="4.008" y="1.67" class="k">&quot;replies&quot;:</text><text x="15.03" y="1.67" class="l">{</text></symbol><symbol id="29"><text x="5.01" y="1.67" class="k">&quot;reply&quot;:</text><text x="14.028" y="1.67" class="l">[</text></symbol><symbol id="30"><text x="6.012" y="1.67" class="l">{</text></symbol><symbol id="31"><text x="7.014" y="1.67" class="k">&quot;reply-index&quot;:</text><text x="22.044" y="1.67" class="k">&quot;</text><text x="23.046" y="1.67" class="l">1</text><text x="24.048" y="1.67" class="k">&quot;</text><text x="25.05" y="1.67" class="l">,</text></symbol><symbol id="32"><text x="7.014" y="1.67" class="k">&quot;result&quot;:</text><text x="17.034" y="1.67" class="k">&quot;</text><text x="18.036" y="1.67" class="l">!</text><text x="19.038" y="1.67" class="k">&quot;</text></symbol><symbol id="33"><text x="6.012" y="1.67" class="l">},</text></symbol><symbol id="34"><text x="7.014" y="1.67" class="k">&quot;reply-index&quot;:</text><text x="22.044" y="1.67" class="k">&quot;</text><text x="23.046" y="1.67" class="l">2</text><text x="24.048" y="1.67" class="k">&quot;</text><text x="25.05" y="1.67" class="l">,</text></symbol><symbol id="35"><text x="6.012" y="1.67" class="l">}</text></symbol><symbol id="36"><text x="5.01" y="1.67" class="l">]</text></symbol><symbol id="37"><text x="4.008" y="1.67" class="l">},</text></symbol><symbol id="38"><text x="4.008" y="1.67" class="k">&quot;hits&quot;:</text><text x="12.024" y="1.67" class="k">&quot;</text><text x="13.026" y="1.67" class="l">2</text><text x="14.028" y="1.67" class="k">&quot;</text><text x="15.03" y="1.67" class="l">,</text></symbol><symbol id="39"><text x="4.008" y="1.67" class="k">&quot;total&quot;:</text><text x="13.026" y="1.67" class="k">&quot;</text><text x="14.028" y="1.67" class="l">2</text><text x="15.03" y="1.67" class="k">&quot;</text><text x="16.032" y="1.67" class="l">,</text></symbol><symbol id="40"><text x="4.008" y="1.67" class="k">&quot;success-rate&quot;:</text><text x="20.04" y="1.67" class="k">&quot;</text><text x="21.042" y="1.67" class="l">100</text><text x="24.048" y="1.67" class="k">&quot;</text><text x="25.05" y="1.67" class="l">,</text></symbol><symbol id="41"><text x="4.008" y="1.67" class="k">&quot;rtt-min&quot;:</text><text x="15.03" y="1.67" class="k">&quot;</text><text x="16.032" y="1.67" class="l">2</text><text x="17.034" y="1.67" class="k">&quot;</text><text x="18.036" y="1.67" class="l">,</text></symbol><symbol id="42"><text x="4.008" y="1.67" class="k">&quot;rtt-avg&quot;:</text><text x="15.03" y="1.67" class="k">&quot;</text><text x="16.032" y="1.67" class="l">2</text><text x="17.034" y="1.67" class="k">&quot;</text><text x="18.036" y="1.67" class="l">,</text></symbol><symbol id="43"><text x="4.008" y="1.67" class="k">&quot;rtt-max&quot;:</text><text x="15.03" y="1.67" class="k">&quot;</text><text x="16.032" y="1.67" class="l">2</text><text x="17.034" y="1.67" class="k">&quot;</text></symbol><symbol id="44"><text x="3.006" y="1.67" class="l">}</text></symbol><symbol id="45"><text x="1.002" y="1.67" class="l">}</text></symbol><symbol id="a"><path fill="transparent" d="M0 0h117v32H0z"/></symbol><symbol id="b"><path fill="#6f7683" d="M0 0h1.102v2.171H0z"/></symbol></defs><path class="a" d="M0 0h117v69.472H0z"/><g style="animation-duration:38.145909s;animation-iteration-count:infinite;animation-name:q;animation-timing-function:steps(1,end)"><svg width="5967"><svg><use xlink:href="#a"/><use xlink:href="#b" x="-.004"/></svg><svg x="117"><use xlink:href="#a"/><use xlink:href="#b" x="-.004"/></svg><svg x="234"><use xlink:href="#a"/><use xlink:href="#b" x="1.996" y="4.317"/><use xlink:href="#1" y="2.171"/><use xlink:href="#2" y="4.342"/></svg><svg x="351"><use xlink:href="#a"/><use xlink:href="#b" x="1.996" y="4.317"/><use xlink:href="#1" y="2.171"/><use xlink:href="#2" y="4.342"/></svg><svg x="468"><use xlink:href="#a"/><use xlink:href="#b" x="4.996" y="4.317"/><use xlink:href="#1" y="2.171"/><text y="6.012" class="g">$</text><text x="2.004" y="6.012" class="k">#</text><text x="4.008" y="6.012" class="k">T</text></svg><svg x="585"><use xlink:href="#a"/><use xlink:href="#b" x="23.996" y="4.317"/><use xlink:href="#1" y="2.171"/><text y="6.012" class="g">$</text><text x="2.004" y="6.012" class="k">#</text><text x="4.008" y="6.012" class="k">Take</text><text x="9.018" y="6.012" class="k">a</text><text x="11.022" y="6.012" class="k">look</text><text x="16.032" y="6.012" class="k">at</text><text x="19.038" y="6.012" class="k">the</text><text x="23.046" y="6.012" class="k">i</text></svg><svg x="702"><use xlink:href="#a"/><use xlink:href="#b" x="32.996" y="4.317"/><use xlink:href="#1" y="2.171"/><text y="6.012" class="g">$</text><text x="2.004" y="6.012" class="k">#</text><text x="4.008" y="6.012" class="k">Take</text><text x="9.018" y="6.012" class="k">a</text><text x="11.022" y="6.012" class="k">look</text><text x="16.032" y="6.012" class="k">at</text><text x="19.038" y="6.012" class="k">the</text><text x="23.046" y="6.012" class="k">input</text><text x="29.058" y="6.012" class="k">file</text></svg><svg x="819"><use xlink:href="#a"/><use xlink:href="#b" x="1.996" y="4.317"/><use xlink:href="#1" y="2.171"/><use xlink:href="#2" y="4.342"/></svg><svg x="936"><use xlink:href="#a"/><use xlink:href="#b" x="4.996" y="4.317"/><use xlink:href="#1" y="2.171"/><text y="6.012" class="g">$</text><text x="2.004" y="6.012" class="k">les</text></svg><svg x="1053"><use xlink:href="#a"/><use xlink:href="#b" x="13.996" y="4.317"/><use xlink:href="#1" y="2.171"/><text y="6.012" class="g">$</text><text x="2.004" y="6.012" class="k">less</text><text x="7.014" y="6.012" class="k">../inpu</text></svg><svg x="1170"><use xlink:href="#a"/><use xlink:href="#b" x="20.996" y="4.317"/><use xlink:href="#1" y="2.171"/><text y="6.012" class="g">$</text><text x="2.004" y="6.012" class="k">less</text><text x="7.014" y="6.012" class="k">../input/actio</text></svg><svg x="1287"><use xlink:href="#a"/><use xlink:href="#b" x="32.996" y="4.317"/><use xlink:href="#1" y="2.171"/><use xlink:href="#3" y="4.342"/></svg><svg x="1404"><use xlink:href="#a"/><use xlink:href="#b" x="-.004" y="6.488"/><use xlink:href="#1" y="2.171"/><use xlink:href="#3" y="4.342"/></svg><svg x="1521"><use xlink:href="#a"/><use xlink:href="#b" x="-.004" y="6.488"/><use xlink:href="#1" y="2.171"/><use xlink:href="#3" y="4.342"/></svg><svg x="1638"><use xlink:href="#a"/><use xlink:href="#b" x="-.004" y="26.027"/><use xlink:href="#1" y="2.171"/><use xlink:href="#3" y="4.342"/><use xlink:href="#4" y="6.513"/><use xlink:href="#5" y="8.684"/><use xlink:href="#6" y="10.855"/><use xlink:href="#7" y="13.026"/><use xlink:href="#8" y="15.197"/><use xlink:href="#9" y="17.368"/><use xlink:href="#10" y="19.539"/><use xlink:href="#11" y="21.71"/><use xlink:href="#12" y="23.881"/></svg><svg x="1755"><use xlink:href="#a"/><use xlink:href="#b" x="-.004" y="28.198"/><use xlink:href="#1" y="2.171"/><use xlink:href="#3" y="4.342"/><use xlink:href="#4" y="6.513"/><use xlink:href="#5" y="8.684"/><use xlink:href="#6" y="10.855"/><use xlink:href="#7" y="13.026"/><use xlink:href="#8" y="15.197"/><use xlink:href="#9" y="17.368"/><use xlink:href="#10" y="19.539"/><use xlink:href="#11" y="21.71"/><use xlink:href="#12" y="23.881"/><use xlink:href="#13" y="26.052"/></svg><svg x="1872"><use xlink:href="#a"/><use xlink:href="#b" x="1.996" y="32.54"/><use xlink:href="#1" y="2.171"/><use xlink:href="#3" y="4.342"/><use xlink:href="#4" y="6.513"/><use xlink:href="#5" y="8.684"/><use xlink:href="#6" y="10.855"/><use xlink:href="#7" y="13.026"/><use xlink:href="#8" y="15.197"/><use xlink:href="#9" y="17.368"/><use xlink:href="#10" y="19.539"/><use xlink:href="#11" y="21.71"/><use xlink:href="#12" y="23.881"/><use xlink:href="#13" y="26.052"/><use xlink:href="#1" y="30.394"/><use xlink:href="#2" y="32.565"/></svg><svg x="1989"><use xlink:href="#a"/><use xlink:href="#b" x="1.996" y="4.317"/><use xlink:href="#1" y="2.171"/><use xlink:href="#2" y="4.342"/></svg><svg x="2106"><use xlink:href="#a"/><use xlink:href="#b" x="5.996" y="4.317"/><use xlink:href="#1" y="2.171"/><text y="6.012" class="g">$</text><text x="2.004" y="6.012" class="k">#</text><text x="4.008" y="6.012" class="k">Ex</text></svg><svg x="2223"><use xlink:href="#a"/><use xlink:href="#b" x="13.996" y="4.317"/><use xlink:href="#1" y="2.171"/><text y="6.012" class="g">$</text><text x="2.004" y="6.012" class="k">#</text><text x="4.008" y="6.012" class="k">Execute</text><text x="12.024" y="6.012" class="k">th</text></svg><svg x="2340"><use xlink:href="#a"/><use xlink:href="#b" x="27.996" y="4.317"/><use xlink:href="#1" y="2.171"/><text y="6.012" class="g">$</text><text x="2.004" y="6.012" class="k">#</text><text x="4.008" y="6.012" class="k">Execute</text><text x="12.024" y="6.012" class="k">the</text><text x="16.032" y="6.012" class="k">action</text><text x="23.046" y="6.012" class="k">in</text><text x="26.052" y="6.012" class="k">th</text></svg><svg x="2457"><use xlink:href="#a"/><use xlink:href="#b" x="41.996" y="4.317"/><use xlink:href="#1" y="2.171"/><text y="6.012" class="g">$</text><text x="2.004" y="6.012" class="k">#</text><text x="4.008" y="6.012" class="k">Execute</text><text x="12.024" y="6.012" class="k">the</text><text x="16.032" y="6.012" class="k">action</text><text x="23.046" y="6.012" class="k">in</text><text x="26.052" y="6.012" class="k">the</text><text x="30.06" y="6.012" class="k">input</text><text x="36.072" y="6.012" class="k">file</text><text x="41.082" y="6.012" class="k">a</text></svg><svg x="2574"><use xlink:href="#a"/><use xlink:href="#b" x="50.996" y="4.317"/><use xlink:href="#1" y="2.171"/><text y="6.012" class="g">$</text><text x="2.004" y="6.012" class="k">#</text><text x="4.008" y="6.012" class="k">Execute</text><text x="12.024" y="6.012" class="k">the</text><text x="16.032" y="6.012" class="k">action</text><text x="23.046" y="6.012" class="k">in</text><text x="26.052" y="6.012" class="k">the</text><text x="30.06" y="6.012" class="k">input</text><text x="36.072" y="6.012" class="k">file</text><text x="41.082" y="6.012" class="k">and</text><text x="45.09" y="6.012" class="k">send</text><text x="50.1" y="6.012" class="k">t</text></svg><svg x="2691"><use xlink:href="#a"/><use xlink:href="#b" x="53.996" y="4.317"/><use xlink:href="#1" y="2.171"/><text y="6.012" class="g">$</text><text x="2.004" y="6.012" class="k">#</text><text x="4.008" y="6.012" class="k">Execute</text><text x="12.024" y="6.012" class="k">the</text><text x="16.032" y="6.012" class="k">action</text><text x="23.046" y="6.012" class="k">in</text><text x="26.052" y="6.012" class="k">the</text><text x="30.06" y="6.012" class="k">input</text><text x="36.072" y="6.012" class="k">file</text><text x="41.082" y="6.012" class="k">and</text><text x="45.09" y="6.012" class="k">send</text><text x="50.1" y="6.012" class="k">the</text></svg><svg x="2808"><use xlink:href="#a"/><use xlink:href="#b" x="56.996" y="4.317"/><use xlink:href="#1" y="2.171"/><text y="6.012" class="g">$</text><text x="2.004" y="6.012" class="k">#</text><text x="4.008" y="6.012" class="k">Execute</text><text x="12.024" y="6.012" class="k">the</text><text x="16.032" y="6.012" class="k">action</text><text x="23.046" y="6.012" class="k">in</text><text x="26.052" y="6.012" class="k">the</text><text x="30.06" y="6.012" class="k">input</text><text x="36.072" y="6.012" class="k">file</text><text x="41.082" y="6.012" class="k">and</text><text x="45.09" y="6.012" class="k">send</text><text x="50.1" y="6.012" class="k">the</text><text x="54.108" y="6.012" class="k">out</text></svg><svg x="2925"><use xlink:href="#a"/><use xlink:href="#b" x="68.996" y="4.317"/><use xlink:href="#1" y="2.171"/><text y="6.012" class="g">$</text><text x="2.004" y="6.012" class="k">#</text><text x="4.008" y="6.012" class="k">Execute</text><text x="12.024" y="6.012" class="k">the</text><text x="16.032" y="6.012" class="k">action</text><text x="23.046" y="6.012" class="k">in</text><text x="26.052" y="6.012" class="k">the</text><text x="30.06" y="6.012" class="k">input</text><text x="36.072" y="6.012" class="k">file</text><text x="41.082" y="6.012" class="k">and</text><text x="45.09" y="6.012" class="k">send</text><text x="50.1" y="6.012" class="k">the</text><text x="54.108" y="6.012" class="k">output</text><text x="61.122" y="6.012" class="k">to</text><text x="64.128" y="6.012" class="k">out.j</text></svg><svg x="3042"><use xlink:href="#a"/><use xlink:href="#b" x="71.996" y="4.317"/><use xlink:href="#1" y="2.171"/><text y="6.012" class="g">$</text><text x="2.004" y="6.012" class="k">#</text><text x="4.008" y="6.012" class="k">Execute</text><text x="12.024" y="6.012" class="k">the</text><text x="16.032" y="6.012" class="k">action</text><text x="23.046" y="6.012" class="k">in</text><text x="26.052" y="6.012" class="k">the</text><text x="30.06" y="6.012" class="k">input</text><text x="36.072" y="6.012" class="k">file</text><text x="41.082" y="6.012" class="k">and</text><text x="45.09" y="6.012" class="k">send</text><text x="50.1" y="6.012" class="k">the</text><text x="54.108" y="6.012" class="k">output</text><text x="61.122" y="6.012" class="k">to</text><text x="64.128" y="6.012" class="k">out.json</text></svg><svg x="3159"><use xlink:href="#a"/><use xlink:href="#b" x="1.996" y="4.317"/><use xlink:href="#1" y="2.171"/><use xlink:href="#2" y="4.342"/></svg><svg x="3276"><use xlink:href="#a"/><use xlink:href="#b" x="3.996" y="4.317"/><use xlink:href="#1" y="2.171"/><text y="6.012" class="g">$</text><text x="2.004" y="6.012" class="k">./</text></svg><svg x="3393"><use xlink:href="#a"/><use xlink:href="#b" x="24.996" y="4.317"/><use xlink:href="#1" y="2.171"/><text y="6.012" class="g">$</text><text x="2.004" y="6.012" class="k">./action</text><text x="11.022" y="6.012" class="k">-act</text><text x="16.032" y="6.012" class="k">&quot;../input</text></svg><svg x="3510"><use xlink:href="#a"/><use xlink:href="#b" x="39.996" y="4.317"/><use xlink:href="#1" y="2.171"/><text y="6.012" class="g">$</text><text x="2.004" y="6.012" class="k">./action</text><text x="11.022" y="6.012" class="k">-act</text><text x="16.032" y="6.012" class="k">&quot;../input/action/ping6.j</text></svg><svg x="3627"><use xlink:href="#a"/><use xlink:href="#b" x="49.996" y="4.317"/><use xlink:href="#1" y="2.171"/><text y="6.012" class="g">$</text><text x="2.004" y="6.012" class="k">./action</text><text x="11.022" y="6.012" class="k">-act</text><text x="16.032" y="6.012" class="k">&quot;../input/action/ping6.json&quot;</text><text x="45.09" y="6.012" class="k">&gt;</text><text x="47.094" y="6.012" class="k">out</text></svg><svg x="3744"><use xlink:href="#a"/><use xlink:href="#b" x="54.996" y="4.317"/><use xlink:href="#1" y="2.171"/><use xlink:href="#14" y="4.342"/></svg><svg x="3861"><use xlink:href="#a"/><use xlink:href="#b" x="-.004" y="6.488"/><use xlink:href="#1" y="2.171"/><use xlink:href="#14" y="4.342"/></svg><svg x="3978"><use xlink:href="#a"/><use xlink:href="#b" x="-.004" y="8.659"/><use xlink:href="#1" y="2.171"/><use xlink:href="#14" y="4.342"/><use xlink:href="#15" y="6.513"/></svg><svg x="4095"><use xlink:href="#a"/><use xlink:href="#b" x="1.996" y="13.001"/><use xlink:href="#1" y="2.171"/><use xlink:href="#14" y="4.342"/><use xlink:href="#15" y="6.513"/><use xlink:href="#1" y="10.855"/><use xlink:href="#2" y="13.026"/></svg><svg x="4212"><use xlink:href="#a"/><use xlink:href="#b" x="1.996" y="4.317"/><use xlink:href="#1" y="2.171"/><use xlink:href="#2" y="4.342"/></svg><svg x="4329"><use xlink:href="#a"/><use xlink:href="#b" x="8.996" y="4.317"/><use xlink:href="#1" y="2.171"/><text y="6.012" class="g">$</text><text x="2.004" y="6.012" class="k">#</text><text x="4.008" y="6.012" class="k">Final</text></svg><svg x="4446"><use xlink:href="#a"/><use xlink:href="#b" x="17.996" y="4.317"/><use xlink:href="#1" y="2.171"/><text y="6.012" class="g">$</text><text x="2.004" y="6.012" class="k">#</text><text x="4.008" y="6.012" class="k">Finally</text><text x="12.024" y="6.012" class="k">see</text><text x="16.032" y="6.012" class="k">th</text></svg><svg x="4563"><use xlink:href="#a"/><use xlink:href="#b" x="27.996" y="4.317"/><use xlink:href="#1" y="2.171"/><text y="6.012" class="g">$</text><text x="2.004" y="6.012" class="k">#</text><text x="4.008" y="6.012" class="k">Finally</text><text x="12.024" y="6.012" class="k">see</text><text x="16.032" y="6.012" class="k">the</text><text x="20.04" y="6.012" class="k">response</text></svg><svg x="4680"><use xlink:href="#a"/><use xlink:href="#b" x="1.996" y="4.317"/><use xlink:href="#1" y="2.171"/><use xlink:href="#2" y="4.342"/></svg><svg x="4797"><use xlink:href="#a"/><use xlink:href="#b" x="5.996" y="4.317"/><use xlink:href="#1" y="2.171"/><text y="6.012" class="g">$</text><text x="2.004" y="6.012" class="k">less</text></svg><svg x="4914"><use xlink:href="#a"/><use xlink:href="#b" x="14.996" y="4.317"/><use xlink:href="#1" y="2.171"/><use xlink:href="#16" y="4.342"/></svg><svg x="5031"><use xlink:href="#a"/><use xlink:href="#b" x="-.004" y="6.488"/><use xlink:href="#1" y="2.171"/><use xlink:href="#16" y="4.342"/></svg><svg x="5148"><use xlink:href="#a"/><use xlink:href="#b" x="-.004" y="8.659"/><use xlink:href="#1" y="2.171"/><use xlink:href="#16" y="4.342"/></svg><svg x="5265"><use xlink:href="#a"/><use xlink:href="#b" x="1.996" y="67.276"/><use xlink:href="#1" y="2.171"/><use xlink:href="#16" y="4.342"/><use xlink:href="#17" y="8.684"/><use xlink:href="#18" y="10.855"/><use xlink:href="#19" y="13.026"/><use xlink:href="#20" y="15.197"/><use xlink:href="#21" y="17.368"/><use xlink:href="#22" y="19.539"/><use xlink:href="#23" y="21.71"/><use xlink:href="#24" y="23.881"/><use xlink:href="#25" y="26.052"/><use xlink:href="#26" y="28.223"/><use xlink:href="#27" y="30.394"/><use xlink:href="#28" y="32.565"/><use xlink:href="#29" y="34.736"/><use xlink:href="#30" y="36.907"/><use xlink:href="#31" y="39.078"/><use xlink:href="#32" y="41.249"/><use xlink:href="#33" y="43.42"/><use xlink:href="#30" y="45.591"/><use xlink:href="#34" y="47.762"/><use xlink:href="#32" y="49.933"/><use xlink:href="#35" y="52.104"/><use xlink:href="#36" y="54.275"/><use xlink:href="#37" y="56.446"/><use xlink:href="#38" y="58.617"/><use xlink:href="#39" y="60.788"/><use xlink:href="#40" y="62.959"/><use xlink:href="#41" y="65.13"/></svg><svg x="5382"><use xlink:href="#a"/><use xlink:href="#b" x="7.996" y="67.276"/><use xlink:href="#17" y="2.171"/><use xlink:href="#18" y="4.342"/><use xlink:href="#19" y="6.513"/><use xlink:href="#20" y="8.684"/><use xlink:href="#21" y="10.855"/><use xlink:href="#22" y="13.026"/><use xlink:href="#23" y="15.197"/><use xlink:href="#24" y="17.368"/><use xlink:href="#25" y="19.539"/><use xlink:href="#26" y="21.71"/><use xlink:href="#27" y="23.881"/><use xlink:href="#28" y="26.052"/><use xlink:href="#29" y="28.223"/><use xlink:href="#30" y="30.394"/><use xlink:href="#31" y="32.565"/><use xlink:href="#32" y="34.736"/><use xlink:href="#33" y="36.907"/><use xlink:href="#30" y="39.078"/><use xlink:href="#34" y="41.249"/><use xlink:href="#32" y="43.42"/><use xlink:href="#35" y="45.591"/><use xlink:href="#36" y="47.762"/><use xlink:href="#37" y="49.933"/><use xlink:href="#38" y="52.104"/><use xlink:href="#39" y="54.275"/><use xlink:href="#40" y="56.446"/><use xlink:href="#41" y="58.617"/><use xlink:href="#42" y="60.788"/><use xlink:href="#43" y="62.959"/><use xlink:href="#44" y="65.13"/><path class="k" d="M0 67.301h8v2.171H0z"/><text y="68.971" class="a">out.json</text></svg><svg x="5499"><use xlink:href="#a"/><use xlink:href="#b" x="4.996" y="67.276"/><use xlink:href="#20"/><use xlink:href="#21" y="2.171"/><use xlink:href="#22" y="4.342"/><use xlink:href="#23" y="6.513"/><use xlink:href="#24" y="8.684"/><use xlink:href="#25" y="10.855"/><use xlink:href="#26" y="13.026"/><use xlink:href="#27" y="15.197"/><use xlink:href="#28" y="17.368"/><use xlink:href="#29" y="19.539"/><use xlink:href="#30" y="21.71"/><use xlink:href="#31" y="23.881"/><use xlink:href="#32" y="26.052"/><use xlink:href="#33" y="28.223"/><use xlink:href="#30" y="30.394"/><use xlink:href="#34" y="32.565"/><use xlink:href="#32" y="34.736"/><use xlink:href="#35" y="36.907"/><use xlink:href="#36" y="39.078"/><use xlink:href="#37" y="41.249"/><use xlink:href="#38" y="43.42"/><use xlink:href="#39" y="45.591"/><use xlink:href="#40" y="47.762"/><use xlink:href="#41" y="49.933"/><use xlink:href="#42" y="52.104"/><use xlink:href="#43" y="54.275"/><use xlink:href="#44" y="56.446"/><use xlink:href="#12" y="58.617"/><use xlink:href="#45" y="60.788"/><use xlink:href="#13" y="62.959"/><path class="k" d="M0 67.301h5v2.171H0z"/><text y="68.971" class="a">(END)</text></svg><svg x="5616"><use xlink:href="#a"/><use xlink:href="#b" x="-.004" y="67.276"/><use xlink:href="#20"/><use xlink:href="#21" y="2.171"/><use xlink:href="#22" y="4.342"/><use xlink:href="#23" y="6.513"/><use xlink:href="#24" y="8.684"/><use xlink:href="#25" y="10.855"/><use xlink:href="#26" y="13.026"/><use xlink:href="#27" y="15.197"/><use xlink:href="#28" y="17.368"/><use xlink:href="#29" y="19.539"/><use xlink:href="#30" y="21.71"/><use xlink:href="#31" y="23.881"/><use xlink:href="#32" y="26.052"/><use xlink:href="#33" y="28.223"/><use xlink:href="#30" y="30.394"/><use xlink:href="#34" y="32.565"/><use xlink:href="#32" y="34.736"/><use xlink:href="#35" y="36.907"/><use xlink:href="#36" y="39.078"/><use xlink:href="#37" y="41.249"/><use xlink:href="#38" y="43.42"/><use xlink:href="#39" y="45.591"/><use xlink:href="#40" y="47.762"/><use xlink:href="#41" y="49.933"/><use xlink:href="#42" y="52.104"/><use xlink:href="#43" y="54.275"/><use xlink:href="#44" y="56.446"/><use xlink:href="#12" y="58.617"/><use xlink:href="#45" y="60.788"/><use xlink:href="#13" y="62.959"/></svg><svg x="5733"><use xlink:href="#a"/><use xlink:href="#b" x="1.996" y="67.276"/><use xlink:href="#22"/><use xlink:href="#23" y="2.171"/><use xlink:href="#24" y="4.342"/><use xlink:href="#25" y="6.513"/><use xlink:href="#26" y="8.684"/><use xlink:href="#27" y="10.855"/><use xlink:href="#28" y="13.026"/><use xlink:href="#29" y="15.197"/><use xlink:href="#30" y="17.368"/><use xlink:href="#31" y="19.539"/><use xlink:href="#32" y="21.71"/><use xlink:href="#33" y="23.881"/><use xlink:href="#30" y="26.052"/><use xlink:href="#34" y="28.223"/><use xlink:href="#32" y="30.394"/><use xlink:href="#35" y="32.565"/><use xlink:href="#36" y="34.736"/><use xlink:href="#37" y="36.907"/><use xlink:href="#38" y="39.078"/><use xlink:href="#39" y="41.249"/><use xlink:href="#40" y="43.42"/><use xlink:href="#41" y="45.591"/><use xlink:href="#42" y="47.762"/><use xlink:href="#43" y="49.933"/><use xlink:href="#44" y="52.104"/><use xlink:href="#12" y="54.275"/><use xlink:href="#45" y="56.446"/><use xlink:href="#13" y="58.617"/><use xlink:href="#1" y="65.13"/><use xlink:href="#2" y="67.301"/></svg><svg x="5850"><use xlink:href="#a"/><use xlink:href="#b" x="-.004" y="67.276"/><use xlink:href="#23"/><use xlink:href="#24" y="2.171"/><use xlink:href="#25" y="4.342"/><use xlink:href="#26" y="6.513"/><use xlink:href="#27" y="8.684"/><use xlink:href="#28" y="10.855"/><use xlink:href="#29" y="13.026"/><use xlink:href="#30" y="15.197"/><use xlink:href="#31" y="17.368"/><use xlink:href="#32" y="19.539"/><use xlink:href="#33" y="21.71"/><use xlink:href="#30" y="23.881"/><use xlink:href="#34" y="26.052"/><use xlink:href="#32" y="28.223"/><use xlink:href="#35" y="30.394"/><use xlink:href="#36" y="32.565"/><use xlink:href="#37" y="34.736"/><use xlink:href="#38" y="36.907"/><use xlink:href="#39" y="39.078"/><use xlink:href="#40" y="41.249"/><use xlink:href="#41" y="43.42"/><use xlink:href="#42" y="45.591"/><use xlink:href="#43" y="47.762"/><use xlink:href="#44" y="49.933"/><use xlink:href="#12" y="52.104"/><use xlink:href="#45" y="54.275"/><use xlink:href="#13" y="56.446"/><use xlink:href="#1" y="62.959"/><text y="66.8" class="g">$</text><text x="2.004" y="66.8" class="k">logout</text></svg></svg></g></g></svg></svg>