<svg xmlns="http://www.w3.org/2000/svg" xmlns:xlink="http://www.w3.org/1999/xlink" width="1210" height="754.72"><rect width="1210" height="754.72" rx="5" ry="5" class="a"/><svg y="0%" x="0%"><circle cx="20" cy="20" r="6" fill="#ff5f58"/><circle cx="40" cy="20" r="6" fill="#ffbd2e"/><circle cx="60" cy="20" r="6" fill="#18c132"/></svg><svg height="694.72" viewBox="0 0 117 69.472" width="1170" x="15" xmlns="http://www.w3.org/2000/svg" xmlns:xlink="http://www.w3.org/1999/xlink" y="50"><style>@keyframes o{0%{transform:translateX(0)}2.92%{transform:translateX(-117px)}3.26%{transform:translateX(-234px)}5.43%{transform:translateX(-351px)}7.35%{transform:translateX(-702px)}11.95%{transform:translateX(-819px)}13.31%{transform:translateX(-1170px)}15.71%{transform:translateX(-1287px)}15.83%{transform:translateX(-1521px)}15.98%{transform:translateX(-1638px)}24.65%{transform:translateX(-1755px)}25.95%{transform:translateX(-2223px)}32.32%{transform:translateX(-2340px)}33.92%{transform:translateX(-2925px)}36.16%{transform:translateX(-3042px)}37.26%{transform:translateX(-3276px)}37.43%{transform:translateX(-3393px)}50.96%{transform:translateX(-3510px)}52.71%{transform:translateX(-3627px)}56.75%{transform:translateX(-4329px)}64.41%{transform:translateX(-4446px)}65.98%{transform:translateX(-4680px)}68.56%{transform:translateX(-4797px)}71.78%{transform:translateX(-4914px)}75.97%{transform:translateX(-5031px)}78.57%{transform:translateX(-5148px)}82.16%{transform:translateX(-5265px)}84.34%{transform:translateX(-5382px)}84.49%{transform:translateX(-5499px)}84.68%{transform:translateX(-5616px)}94.22%{transform:translateX(-5733px)}94.59%{transform:translateX(-5850px)}94.95%{transform:translateX(-5967px)}95.38%{transform:translateX(-6084px)}96.73%{transform:translateX(-6318px)}96.9%{transform:translateX(-6435px)}to{transform:translateX(-6552px)}}.a{fill:#282d35}.g{fill:#fff;font-weight:700}.k{fill:#b9c0cb}.l{fill:#e88388}</style><g font-size="1.67" font-family="Monaco,Consolas,Menlo,'Bitstream Vera Sans Mono','Powerline Symbols',monospace"><defs><symbol id="1"><text y="1.67" fill="#d75f00" font-weight="700">nleiva</text><text x="7.014" y="1.67" class="g">in</text><text x="10.02" y="1.67" fill="#5f8700" font-weight="700">~/go/src/github.com/nleiva/xrgrpc/example/action</text><text x="59.118" y="1.67" class="g">on</text><text x="62.124" y="1.67" fill="#5f5faf" font-weight="700">master</text><text x="69.138" y="1.67" fill="#0087ff" font-weight="700">[?]</text></symbol><symbol id="2"><text y="1.67" class="g">$</text></symbol><symbol id="3"><text y="1.67" class="g">$</text><text x="2.004" y="1.67" class="k">less</text><text x="7.014" y="1.67" class="k">../input/action/log.json</text></symbol><symbol id="4"><text y="1.67" class="l">{</text></symbol><symbol id="5"><text x="2.004" y="1.67" class="k">&quot;Cisco-IOS-XR-syslog-act:logmsg&quot;:</text><text x="35.07" y="1.67" class="l">{</text></symbol><symbol id="6"><text x="4.008" y="1.67" class="k">&quot;severity&quot;:&quot;</text><text x="16.032" y="1.67" class="l">alert</text><text x="21.042" y="1.67" class="k">&quot;</text><text x="22.044" y="1.67" class="l">,</text></symbol><symbol id="7"><text x="4.008" y="1.67" class="k">&quot;message&quot;:&quot;</text><text x="15.03" y="1.67" class="l">gRPC</text><text x="20.04" y="1.67" class="l">Generated:</text><text x="31.062" y="1.67" class="l">Device</text><text x="38.076" y="1.67" class="l">will</text><text x="43.086" y="1.67" class="l">be</text><text x="46.092" y="1.67" class="l">under</text><text x="52.104" y="1.67" class="l">maintenance</text><text x="64.128" y="1.67" class="l">for</text><text x="68.136" y="1.67" class="l">2</text><text x="70.14" y="1.67" class="l">hrs</text><text x="74.148" y="1.67" class="l">for</text><text x="78.156" y="1.67" class="l">planned</text><text x="86.172" y="1.67" class="l">activities</text><text x="96.192" y="1.67" class="k">&quot;</text></symbol><symbol id="8"><text x="2.004" y="1.67" class="l">}</text></symbol><symbol id="9"><text y="1.67" class="l">}</text></symbol><symbol id="10"><text y="1.67" class="g">$</text><text x="2.004" y="1.67" class="k">./action</text><text x="11.022" y="1.67" class="k">-act</text><text x="16.032" y="1.67" class="k">&quot;../input/action/log.json&quot;</text></symbol><symbol id="11"><text y="1.67" class="k">output</text><text x="7.014" y="1.67" class="k">from</text><text x="12.024" y="1.67" class="k">[2001:420:2cff:1204::7816:1]:57344</text></symbol><symbol id="12"><text y="1.67" class="k">2018/05/31</text><text x="11.022" y="1.67" class="k">14:30:29</text><text x="20.04" y="1.67" class="k">This</text><text x="25.05" y="1.67" class="k">process</text><text x="33.066" y="1.67" class="k">took</text><text x="38.076" y="1.67" class="k">450.684036ms</text></symbol><symbol id="13"><text y="1.67" class="g">$</text><text x="2.004" y="1.67" class="k">wb01</text></symbol><symbol id="14"><text y="1.67" class="k">Password:</text></symbol><symbol id="15"><text y="1.67" class="k">RP/0/RP0/CPU0:mrstn-7816-1.cisco.com#</text></symbol><symbol id="16"><text y="1.67" class="k">RP/0/RP0/CPU0:mrstn-7816-1.cisco.com#show</text><text x="42.084" y="1.67" class="k">logging</text><text x="50.1" y="1.67" class="k">|</text><text x="52.104" y="1.67" class="k">include</text><text x="60.12" y="1.67" class="k">&quot;gRPC</text><text x="66.132" y="1.67" class="k">Generated&quot;</text></symbol><symbol id="17"><text y="1.67" class="k">Thu</text><text x="4.008" y="1.67" class="k">May</text><text x="8.016" y="1.67" class="k">31</text><text x="11.022" y="1.67" class="k">18:30:50.738</text><text x="24.048" y="1.67" class="k">UTC</text></symbol><symbol id="18"><text y="1.67" class="k">RP/0/RP0/CPU0:May</text><text x="18.036" y="1.67" class="k">31</text><text x="21.042" y="1.67" class="k">18:30:29.064</text><text x="34.068" y="1.67" class="k">UTC:</text><text x="39.078" y="1.67" class="k">emsd[1096]:</text><text x="51.102" y="1.67" class="k">%OS-SYSLOG-1-LOG_ALERT</text><text x="74.148" y="1.67" class="k">:</text><text x="76.152" y="1.67" class="k">gRPC</text><text x="81.162" y="1.67" class="k">Generated:</text><text x="92.184" y="1.67" class="k">Device</text><text x="99.198" y="1.67" class="k">will</text><text x="104.208" y="1.67" class="k">be</text><text x="107.214" y="1.67" class="k">under</text><text x="113.226" y="1.67" class="k">main</text></symbol><symbol id="19"><text y="1.67" class="k">tenance</text><text x="8.016" y="1.67" class="k">for</text><text x="12.024" y="1.67" class="k">2</text><text x="14.028" y="1.67" class="k">hrs</text><text x="18.036" y="1.67" class="k">for</text><text x="22.044" y="1.67" class="k">planned</text><text x="30.06" y="1.67" class="k">activities</text></symbol><symbol id="20"><text y="1.67" class="k">RP/0/RP0/CPU0:mrstn-7816-1.cisco.com#exit</text></symbol><symbol id="21"><text y="1.67" class="k">Connection</text><text x="11.022" y="1.67" class="k">to</text><text x="14.028" y="1.67" class="k">mrstn-7816-1.cisco.com</text><text x="37.074" y="1.67" class="k">closed</text><text x="44.088" y="1.67" class="k">by</text><text x="47.094" y="1.67" class="k">remote</text><text x="54.108" y="1.67" class="k">host.</text></symbol><symbol id="22"><text y="1.67" class="k">Connection</text><text x="11.022" y="1.67" class="k">to</text><text x="14.028" y="1.67" class="k">mrstn-7816-1.cisco.com</text><text x="37.074" y="1.67" class="k">closed.</text></symbol><symbol id="a"><path fill="transparent" d="M0 0h117v32H0z"/></symbol><symbol id="b"><path fill="#6f7683" d="M0 0h1.102v2.171H0z"/></symbol></defs><path class="a" d="M0 0h117v69.472H0z"/><g style="animation-duration:46.01372s;animation-iteration-count:infinite;animation-name:o;animation-timing-function:steps(1,end)"><svg width="6669"><svg><use xlink:href="#a"/><use xlink:href="#b" x="-.004"/></svg><svg x="117"><use xlink:href="#a"/><use xlink:href="#b" x="-.004"/></svg><svg x="234"><use xlink:href="#a"/><use xlink:href="#b" x="1.996" y="4.317"/><use xlink:href="#1" y="2.171"/><use xlink:href="#2" y="4.342"/></svg><svg x="351"><use xlink:href="#a"/><use xlink:href="#b" x="1.996" y="4.317"/><use xlink:href="#1" y="2.171"/><use xlink:href="#2" y="4.342"/></svg><svg x="468"><use xlink:href="#a"/><use xlink:href="#b" x="3.996" y="4.317"/><use xlink:href="#1" y="2.171"/><text y="6.012" class="g">$</text><text x="2.004" y="6.012" class="k">#</text></svg><svg x="585"><use xlink:href="#a"/><use xlink:href="#b" x="12.996" y="4.317"/><use xlink:href="#1" y="2.171"/><text y="6.012" class="g">$</text><text x="2.004" y="6.012" class="k">#</text><text x="4.008" y="6.012" class="k">Take</text><text x="9.018" y="6.012" class="k">a</text><text x="11.022" y="6.012" class="k">lo</text></svg><svg x="702"><use xlink:href="#a"/><use xlink:href="#b" x="32.996" y="4.317"/><use xlink:href="#1" y="2.171"/><text y="6.012" class="g">$</text><text x="2.004" y="6.012" class="k">#</text><text x="4.008" y="6.012" class="k">Take</text><text x="9.018" y="6.012" class="k">a</text><text x="11.022" y="6.012" class="k">look</text><text x="16.032" y="6.012" class="k">at</text><text x="19.038" y="6.012" class="k">the</text><text x="23.046" y="6.012" class="k">input</text><text x="29.058" y="6.012" class="k">file</text></svg><svg x="819"><use xlink:href="#a"/><use xlink:href="#b" x="1.996" y="4.317"/><use xlink:href="#1" y="2.171"/><use xlink:href="#2" y="4.342"/></svg><svg x="936"><use xlink:href="#a"/><use xlink:href="#b" x="6.996" y="4.317"/><use xlink:href="#1" y="2.171"/><text y="6.012" class="g">$</text><text x="2.004" y="6.012" class="k">less</text></svg><svg x="1053"><use xlink:href="#a"/><use xlink:href="#b" x="29.996" y="4.317"/><use xlink:href="#1" y="2.171"/><text y="6.012" class="g">$</text><text x="2.004" y="6.012" class="k">less</text><text x="7.014" y="6.012" class="k">../input/action/log.jso</text></svg><svg x="1170"><use xlink:href="#a"/><use xlink:href="#b" x="30.996" y="4.317"/><use xlink:href="#1" y="2.171"/><use xlink:href="#3" y="4.342"/></svg><svg x="1287"><use xlink:href="#a"/><use xlink:href="#b" x="-.004" y="6.488"/><use xlink:href="#1" y="2.171"/><use xlink:href="#3" y="4.342"/></svg><svg x="1404"><use xlink:href="#a"/><use xlink:href="#b" x="-.004" y="17.343"/><use xlink:href="#1" y="2.171"/><use xlink:href="#3" y="4.342"/><use xlink:href="#4" y="6.513"/><use xlink:href="#5" y="8.684"/><use xlink:href="#6" y="10.855"/><use xlink:href="#7" y="13.026"/><use xlink:href="#8" y="15.197"/></svg><svg x="1521"><use xlink:href="#a"/><use xlink:href="#b" x="-.004" y="19.514"/><use xlink:href="#1" y="2.171"/><use xlink:href="#3" y="4.342"/><use xlink:href="#4" y="6.513"/><use xlink:href="#5" y="8.684"/><use xlink:href="#6" y="10.855"/><use xlink:href="#7" y="13.026"/><use xlink:href="#8" y="15.197"/><use xlink:href="#9" y="17.368"/></svg><svg x="1638"><use xlink:href="#a"/><use xlink:href="#b" x="1.996" y="23.856"/><use xlink:href="#1" y="2.171"/><use xlink:href="#3" y="4.342"/><use xlink:href="#4" y="6.513"/><use xlink:href="#5" y="8.684"/><use xlink:href="#6" y="10.855"/><use xlink:href="#7" y="13.026"/><use xlink:href="#8" y="15.197"/><use xlink:href="#9" y="17.368"/><use xlink:href="#1" y="21.71"/><use xlink:href="#2" y="23.881"/></svg><svg x="1755"><use xlink:href="#a"/><use xlink:href="#b" x="1.996" y="4.317"/><use xlink:href="#1" y="2.171"/><use xlink:href="#2" y="4.342"/></svg><svg x="1872"><use xlink:href="#a"/><use xlink:href="#b" x="8.996" y="4.317"/><use xlink:href="#1" y="2.171"/><text y="6.012" class="g">$</text><text x="2.004" y="6.012" class="k">#</text><text x="4.008" y="6.012" class="k">Execu</text></svg><svg x="1989"><use xlink:href="#a"/><use xlink:href="#b" x="31.996" y="4.317"/><use xlink:href="#1" y="2.171"/><text y="6.012" class="g">$</text><text x="2.004" y="6.012" class="k">#</text><text x="4.008" y="6.012" class="k">Execute</text><text x="12.024" y="6.012" class="k">the</text><text x="16.032" y="6.012" class="k">action</text><text x="23.046" y="6.012" class="k">in</text><text x="26.052" y="6.012" class="k">the</text><text x="30.06" y="6.012" class="k">in</text></svg><svg x="2106"><use xlink:href="#a"/><use xlink:href="#b" x="37.996" y="4.317"/><use xlink:href="#1" y="2.171"/><text y="6.012" class="g">$</text><text x="2.004" y="6.012" class="k">#</text><text x="4.008" y="6.012" class="k">Execute</text><text x="12.024" y="6.012" class="k">the</text><text x="16.032" y="6.012" class="k">action</text><text x="23.046" y="6.012" class="k">in</text><text x="26.052" y="6.012" class="k">the</text><text x="30.06" y="6.012" class="k">input</text><text x="36.072" y="6.012" class="k">fi</text></svg><svg x="2223"><use xlink:href="#a"/><use xlink:href="#b" x="39.996" y="4.317"/><use xlink:href="#1" y="2.171"/><text y="6.012" class="g">$</text><text x="2.004" y="6.012" class="k">#</text><text x="4.008" y="6.012" class="k">Execute</text><text x="12.024" y="6.012" class="k">the</text><text x="16.032" y="6.012" class="k">action</text><text x="23.046" y="6.012" class="k">in</text><text x="26.052" y="6.012" class="k">the</text><text x="30.06" y="6.012" class="k">input</text><text x="36.072" y="6.012" class="k">file</text></svg><svg x="2340"><use xlink:href="#a"/><use xlink:href="#b" x="1.996" y="4.317"/><use xlink:href="#1" y="2.171"/><use xlink:href="#2" y="4.342"/></svg><svg x="2457"><use xlink:href="#a"/><use xlink:href="#b" x="4.996" y="4.317"/><use xlink:href="#1" y="2.171"/><text y="6.012" class="g">$</text><text x="2.004" y="6.012" class="k">./a</text></svg><svg x="2574"><use xlink:href="#a"/><use xlink:href="#b" x="13.996" y="4.317"/><use xlink:href="#1" y="2.171"/><text y="6.012" class="g">$</text><text x="2.004" y="6.012" class="k">./action</text><text x="11.022" y="6.012" class="k">-ac</text></svg><svg x="2691"><use xlink:href="#a"/><use xlink:href="#b" x="19.996" y="4.317"/><use xlink:href="#1" y="2.171"/><text y="6.012" class="g">$</text><text x="2.004" y="6.012" class="k">./action</text><text x="11.022" y="6.012" class="k">-act</text><text x="16.032" y="6.012" class="k">&quot;../</text></svg><svg x="2808"><use xlink:href="#a"/><use xlink:href="#b" x="30.996" y="4.317"/><use xlink:href="#1" y="2.171"/><text y="6.012" class="g">$</text><text x="2.004" y="6.012" class="k">./action</text><text x="11.022" y="6.012" class="k">-act</text><text x="16.032" y="6.012" class="k">&quot;../input/actio</text></svg><svg x="2925"><use xlink:href="#a"/><use xlink:href="#b" x="41.996" y="4.317"/><use xlink:href="#1" y="2.171"/><use xlink:href="#10" y="4.342"/></svg><svg x="3042"><use xlink:href="#a"/><use xlink:href="#b" x="-.004" y="6.488"/><use xlink:href="#1" y="2.171"/><use xlink:href="#10" y="4.342"/></svg><svg x="3159"><use xlink:href="#a"/><use xlink:href="#b" x="-.004" y="13.001"/><use xlink:href="#1" y="2.171"/><use xlink:href="#10" y="4.342"/><use xlink:href="#11" y="8.684"/></svg><svg x="3276"><use xlink:href="#a"/><use xlink:href="#b" x="-.004" y="15.172"/><use xlink:href="#1" y="2.171"/><use xlink:href="#10" y="4.342"/><use xlink:href="#11" y="8.684"/><use xlink:href="#12" y="13.026"/></svg><svg x="3393"><use xlink:href="#a"/><use xlink:href="#b" x="1.996" y="19.514"/><use xlink:href="#1" y="2.171"/><use xlink:href="#10" y="4.342"/><use xlink:href="#11" y="8.684"/><use xlink:href="#12" y="13.026"/><use xlink:href="#1" y="17.368"/><use xlink:href="#2" y="19.539"/></svg><svg x="3510"><use xlink:href="#a"/><use xlink:href="#b" x="1.996" y="19.514"/><use xlink:href="#1" y="2.171"/><use xlink:href="#10" y="4.342"/><use xlink:href="#11" y="8.684"/><use xlink:href="#12" y="13.026"/><use xlink:href="#1" y="17.368"/><use xlink:href="#2" y="19.539"/></svg><svg x="3627"><use xlink:href="#a"/><use xlink:href="#b" x="1.996" y="4.317"/><use xlink:href="#1" y="2.171"/><use xlink:href="#2" y="4.342"/></svg><svg x="3744"><use xlink:href="#a"/><use xlink:href="#b" x="4.996" y="4.317"/><use xlink:href="#1" y="2.171"/><text y="6.012" class="g">$</text><text x="2.004" y="6.012" class="k">#</text><text x="4.008" y="6.012" class="k">L</text></svg><svg x="3861"><use xlink:href="#a"/><use xlink:href="#b" x="26.996" y="4.317"/><use xlink:href="#1" y="2.171"/><text y="6.012" class="g">$</text><text x="2.004" y="6.012" class="k">#</text><text x="4.008" y="6.012" class="k">Log</text><text x="8.016" y="6.012" class="k">into</text><text x="13.026" y="6.012" class="k">the</text><text x="17.034" y="6.012" class="k">device</text><text x="24.048" y="6.012" class="k">and</text></svg><svg x="3978"><use xlink:href="#a"/><use xlink:href="#b" x="39.996" y="4.317"/><use xlink:href="#1" y="2.171"/><text y="6.012" class="g">$</text><text x="2.004" y="6.012" class="k">#</text><text x="4.008" y="6.012" class="k">Log</text><text x="8.016" y="6.012" class="k">into</text><text x="13.026" y="6.012" class="k">the</text><text x="17.034" y="6.012" class="k">device</text><text x="24.048" y="6.012" class="k">and</text><text x="28.056" y="6.012" class="k">verify</text><text x="35.07" y="6.012" class="k">the</text><text x="39.078" y="6.012" class="k">m</text></svg><svg x="4095"><use xlink:href="#a"/><use xlink:href="#b" x="49.996" y="4.317"/><use xlink:href="#1" y="2.171"/><text y="6.012" class="g">$</text><text x="2.004" y="6.012" class="k">#</text><text x="4.008" y="6.012" class="k">Log</text><text x="8.016" y="6.012" class="k">into</text><text x="13.026" y="6.012" class="k">the</text><text x="17.034" y="6.012" class="k">device</text><text x="24.048" y="6.012" class="k">and</text><text x="28.056" y="6.012" class="k">verify</text><text x="35.07" y="6.012" class="k">the</text><text x="39.078" y="6.012" class="k">message</text><text x="47.094" y="6.012" class="k">was</text></svg><svg x="4212"><use xlink:href="#a"/><use xlink:href="#b" x="56.996" y="4.317"/><use xlink:href="#1" y="2.171"/><text y="6.012" class="g">$</text><text x="2.004" y="6.012" class="k">#</text><text x="4.008" y="6.012" class="k">Log</text><text x="8.016" y="6.012" class="k">into</text><text x="13.026" y="6.012" class="k">the</text><text x="17.034" y="6.012" class="k">device</text><text x="24.048" y="6.012" class="k">and</text><text x="28.056" y="6.012" class="k">verify</text><text x="35.07" y="6.012" class="k">the</text><text x="39.078" y="6.012" class="k">message</text><text x="47.094" y="6.012" class="k">was</text><text x="51.102" y="6.012" class="k">genera</text></svg><svg x="4329"><use xlink:href="#a"/><use xlink:href="#b" x="59.996" y="4.317"/><use xlink:href="#1" y="2.171"/><text y="6.012" class="g">$</text><text x="2.004" y="6.012" class="k">#</text><text x="4.008" y="6.012" class="k">Log</text><text x="8.016" y="6.012" class="k">into</text><text x="13.026" y="6.012" class="k">the</text><text x="17.034" y="6.012" class="k">device</text><text x="24.048" y="6.012" class="k">and</text><text x="28.056" y="6.012" class="k">verify</text><text x="35.07" y="6.012" class="k">the</text><text x="39.078" y="6.012" class="k">message</text><text x="47.094" y="6.012" class="k">was</text><text x="51.102" y="6.012" class="k">generated</text></svg><svg x="4446"><use xlink:href="#a"/><use xlink:href="#b" x="1.996" y="4.317"/><use xlink:href="#1" y="2.171"/><use xlink:href="#2" y="4.342"/></svg><svg x="4563"><use xlink:href="#a"/><use xlink:href="#b" x="4.996" y="4.317"/><use xlink:href="#1" y="2.171"/><text y="6.012" class="g">$</text><text x="2.004" y="6.012" class="k">wb0</text></svg><svg x="4680"><use xlink:href="#a"/><use xlink:href="#b" x="5.996" y="4.317"/><use xlink:href="#1" y="2.171"/><use xlink:href="#13" y="4.342"/></svg><svg x="4797"><use xlink:href="#a"/><use xlink:href="#b" x="-.004" y="6.488"/><use xlink:href="#1" y="2.171"/><use xlink:href="#13" y="4.342"/></svg><svg x="4914"><use xlink:href="#a"/><use xlink:href="#b" x="9.996" y="6.488"/><use xlink:href="#1" y="2.171"/><use xlink:href="#13" y="4.342"/><use xlink:href="#14" y="6.513"/></svg><svg x="5031"><use xlink:href="#a"/><use xlink:href="#b" x="-.004" y="8.659"/><use xlink:href="#1" y="2.171"/><use xlink:href="#13" y="4.342"/><use xlink:href="#14" y="6.513"/></svg><svg x="5148"><use xlink:href="#a"/><use xlink:href="#b" x="36.996" y="13.001"/><use xlink:href="#1" y="2.171"/><use xlink:href="#13" y="4.342"/><use xlink:href="#14" y="6.513"/><use xlink:href="#15" y="13.026"/></svg><svg x="5265"><use xlink:href="#a"/><use xlink:href="#b" x="75.996" y="13.001"/><use xlink:href="#1" y="2.171"/><use xlink:href="#13" y="4.342"/><use xlink:href="#14" y="6.513"/><use xlink:href="#16" y="13.026"/></svg><svg x="5382"><use xlink:href="#a"/><use xlink:href="#b" x="-.004" y="15.172"/><use xlink:href="#1" y="2.171"/><use xlink:href="#13" y="4.342"/><use xlink:href="#14" y="6.513"/><use xlink:href="#16" y="13.026"/></svg><svg x="5499"><use xlink:href="#a"/><use xlink:href="#b" x="-.004" y="17.343"/><use xlink:href="#1" y="2.171"/><use xlink:href="#13" y="4.342"/><use xlink:href="#14" y="6.513"/><use xlink:href="#16" y="13.026"/><use xlink:href="#17" y="15.197"/></svg><svg x="5616"><use xlink:href="#a"/><use xlink:href="#b" x="36.996" y="21.685"/><use xlink:href="#1" y="2.171"/><use xlink:href="#13" y="4.342"/><use xlink:href="#14" y="6.513"/><use xlink:href="#16" y="13.026"/><use xlink:href="#17" y="15.197"/><use xlink:href="#18" y="17.368"/><use xlink:href="#19" y="19.539"/><use xlink:href="#15" y="21.71"/></svg><svg x="5733"><use xlink:href="#a"/><use xlink:href="#b" x="37.996" y="21.685"/><use xlink:href="#1" y="2.171"/><use xlink:href="#13" y="4.342"/><use xlink:href="#14" y="6.513"/><use xlink:href="#16" y="13.026"/><use xlink:href="#17" y="15.197"/><use xlink:href="#18" y="17.368"/><use xlink:href="#19" y="19.539"/><text y="23.38" class="k">RP/0/RP0/CPU0:mrstn-7816-1.cisco.com#e</text></svg><svg x="5850"><use xlink:href="#a"/><use xlink:href="#b" x="38.996" y="21.685"/><use xlink:href="#1" y="2.171"/><use xlink:href="#13" y="4.342"/><use xlink:href="#14" y="6.513"/><use xlink:href="#16" y="13.026"/><use xlink:href="#17" y="15.197"/><use xlink:href="#18" y="17.368"/><use xlink:href="#19" y="19.539"/><text y="23.38" class="k">RP/0/RP0/CPU0:mrstn-7816-1.cisco.com#ex</text></svg><svg x="5967"><use xlink:href="#a"/><use xlink:href="#b" x="39.996" y="21.685"/><use xlink:href="#1" y="2.171"/><use xlink:href="#13" y="4.342"/><use xlink:href="#14" y="6.513"/><use xlink:href="#16" y="13.026"/><use xlink:href="#17" y="15.197"/><use xlink:href="#18" y="17.368"/><use xlink:href="#19" y="19.539"/><text y="23.38" class="k">RP/0/RP0/CPU0:mrstn-7816-1.cisco.com#exi</text></svg><svg x="6084"><use xlink:href="#a"/><use xlink:href="#b" x="40.996" y="21.685"/><use xlink:href="#1" y="2.171"/><use xlink:href="#13" y="4.342"/><use xlink:href="#14" y="6.513"/><use xlink:href="#16" y="13.026"/><use xlink:href="#17" y="15.197"/><use xlink:href="#18" y="17.368"/><use xlink:href="#19" y="19.539"/><use xlink:href="#20" y="21.71"/></svg><svg x="6201"><use xlink:href="#a"/><use xlink:href="#b" x="-.004" y="23.856"/><use xlink:href="#1" y="2.171"/><use xlink:href="#13" y="4.342"/><use xlink:href="#14" y="6.513"/><use xlink:href="#16" y="13.026"/><use xlink:href="#17" y="15.197"/><use xlink:href="#18" y="17.368"/><use xlink:href="#19" y="19.539"/><use xlink:href="#20" y="21.71"/></svg><svg x="6318"><use xlink:href="#a"/><use xlink:href="#b" x="-.004" y="28.198"/><use xlink:href="#1" y="2.171"/><use xlink:href="#13" y="4.342"/><use xlink:href="#14" y="6.513"/><use xlink:href="#16" y="13.026"/><use xlink:href="#17" y="15.197"/><use xlink:href="#18" y="17.368"/><use xlink:href="#19" y="19.539"/><use xlink:href="#20" y="21.71"/><use xlink:href="#21" y="23.881"/><use xlink:href="#22" y="26.052"/></svg><svg x="6435"><use xlink:href="#a"/><use xlink:href="#b" x="1.996" y="32.54"/><use xlink:href="#1" y="2.171"/><use xlink:href="#13" y="4.342"/><use xlink:href="#14" y="6.513"/><use xlink:href="#16" y="13.026"/><use xlink:href="#17" y="15.197"/><use xlink:href="#18" y="17.368"/><use xlink:href="#19" y="19.539"/><use xlink:href="#20" y="21.71"/><use xlink:href="#21" y="23.881"/><use xlink:href="#22" y="26.052"/><use xlink:href="#1" y="30.394"/><use xlink:href="#2" y="32.565"/></svg><svg x="6552"><use xlink:href="#a"/><use xlink:href="#b" x="-.004" y="34.711"/><use xlink:href="#1" y="2.171"/><use xlink:href="#13" y="4.342"/><use xlink:href="#14" y="6.513"/><use xlink:href="#16" y="13.026"/><use xlink:href="#17" y="15.197"/><use xlink:href="#18" y="17.368"/><use xlink:href="#19" y="19.539"/><use xlink:href="#20" y="21.71"/><use xlink:href="#21" y="23.881"/><use xlink:href="#22" y="26.052"/><use xlink:href="#1" y="30.394"/><text y="34.235" class="g">$</text><text x="2.004" y="34.235" class="k">logout</text></svg></svg></g></g></svg></svg>